<svg width="202" height="202" viewBox="0 0 202 202" fill="none" xmlns="http://www.w3.org/2000/svg">
<g id="Group 22">
<circle id="Oval Copy 2" opacity="0.202683" cx="101" cy="101" r="101" transform="matrix(0 1 1 0 0 0)" fill="url(#paint0_linear_1_10323)"/>
<g id="designer_(2) 2">
<g id="designer_(2)">
<path id="Path" d="M192.03 166.454H9.96957C9.77414 166.454 9.61572 166.295 9.61572 166.098C9.61572 165.902 9.77414 165.743 9.96957 165.743H192.03C192.226 165.743 192.384 165.902 192.384 166.098C192.384 166.295 192.226 166.454 192.03 166.454Z" fill="#D1D3D4"/>
<rect id="Rectangle" x="136.144" y="104.141" width="40.6428" height="70.0579" fill="white"/>
<path id="Shape" fill-rule="evenodd" clip-rule="evenodd" d="M136.144 174.554H176.787C176.883 174.554 176.975 174.514 177.042 174.445C177.109 174.375 177.144 174.281 177.14 174.184V104.14C177.14 103.944 176.982 103.785 176.787 103.785H136.144C135.948 103.785 135.79 103.944 135.79 104.14V174.198C135.79 174.395 135.948 174.554 136.144 174.554ZM176.433 173.843H136.498V104.496H176.433V173.843Z" fill="#231F20"/>
<rect id="Rectangle_2" x="24.1729" y="104.141" width="40.6428" height="70.0579" fill="white"/>
<path id="Shape_2" fill-rule="evenodd" clip-rule="evenodd" d="M24.1732 174.554H64.816C64.9123 174.554 65.0045 174.514 65.0713 174.445C65.1381 174.375 65.1736 174.281 65.1698 174.184V104.14C65.1698 103.944 65.0114 103.785 64.816 103.785H24.1732C23.9778 103.785 23.8193 103.944 23.8193 104.14V174.198C23.8193 174.395 23.9778 174.554 24.1732 174.554ZM64.4621 173.843H24.527V104.496H64.4621V173.843Z" fill="#231F20"/>
<path id="Path_2" d="M143.709 83.8267L151.756 100.048H129.994L143.709 83.8267Z" fill="#231F20"/>
<path id="Shape_3" fill-rule="evenodd" clip-rule="evenodd" d="M130.016 100.403H151.756C151.89 100.417 152.02 100.35 152.089 100.233C152.149 100.127 152.149 99.9974 152.089 99.8919L144.049 83.6706C143.995 83.5641 143.891 83.492 143.773 83.4787C143.655 83.46 143.536 83.5061 143.462 83.5995L129.747 99.8208C129.655 99.9239 129.633 100.072 129.69 100.197C129.75 100.323 129.877 100.403 130.016 100.403ZM151.183 99.6929H130.759L143.632 84.4735L151.183 99.6929Z" fill="#231F20"/>
<path id="Path_3" d="M81.9062 100.048H133.716L152.513 72.394H103.604L81.9062 100.048Z" fill="#231F20"/>
<path id="Shape_4" fill-rule="evenodd" clip-rule="evenodd" d="M81.8923 100.403H133.717C133.836 100.406 133.948 100.347 134.014 100.247L152.81 72.6004C152.881 72.4874 152.881 72.3439 152.81 72.2309C152.747 72.1161 152.629 72.0431 152.499 72.0391H103.59C103.482 72.0385 103.38 72.0884 103.314 72.1741L81.6163 99.8278C81.5323 99.9344 81.5164 100.08 81.5751 100.202C81.6338 100.325 81.7569 100.403 81.8923 100.403ZM133.554 99.6928H82.6353L103.774 72.7496H151.869L133.554 99.6928Z" fill="#231F20"/>
<path id="Path_4" d="M105.161 75.0801L89.6768 95.2235H128.126L142.676 75.0801H105.161Z" fill="white"/>
<path id="Shape_5" fill-rule="evenodd" clip-rule="evenodd" d="M89.6768 95.5786H128.126C128.234 95.5736 128.333 95.5185 128.395 95.4294L142.945 75.286C143.015 75.173 143.015 75.0295 142.945 74.9165C142.887 74.7972 142.766 74.7224 142.633 74.7247H105.126C105.018 74.7241 104.916 74.774 104.85 74.8597L89.3584 95.0031C89.2914 95.1196 89.2914 95.2631 89.3584 95.3797C89.4179 95.5017 89.5415 95.5789 89.6768 95.5786ZM127.906 94.8681H90.3987L105.338 75.421H141.982L127.906 94.8681Z" fill="#231F20"/>
<path id="Path_5" d="M116.173 91.557C116.022 91.5559 115.889 91.4589 115.84 91.3154C113.979 85.8088 111.389 79.7694 110.448 79.6272C109.323 79.6272 102.104 85.617 95.6924 91.4717C95.5989 91.558 95.4666 91.5877 95.3454 91.5495C95.2241 91.5113 95.1324 91.4111 95.1047 91.2866C95.0771 91.1621 95.1176 91.0322 95.2112 90.9459C97.4333 88.9209 108.48 78.9238 110.512 78.9238H110.589C112.401 79.2009 115.607 88.3028 116.548 91.088C116.579 91.1775 116.573 91.2758 116.53 91.3603C116.487 91.4447 116.412 91.5081 116.322 91.5357C116.275 91.5557 116.224 91.5631 116.173 91.557Z" fill="#D1D3D4"/>
<path id="Path_6" d="M127.722 92.296C127.563 92.2951 127.424 92.1875 127.383 92.0331C126.137 87.5923 124.361 82.8531 123.526 82.6044C122.691 82.3557 118.813 85.8728 115.656 89.2549C115.521 89.3981 115.296 89.4045 115.154 89.2691C115.011 89.1337 115.005 88.9079 115.14 88.7646C116.753 87.0381 122.132 81.4462 123.731 81.9294C125.33 82.4125 127.623 90.271 128.062 91.8767C128.117 92.0651 128.009 92.2623 127.821 92.3173L127.722 92.296Z" fill="#D1D3D4"/>
<path id="Shape_6" fill-rule="evenodd" clip-rule="evenodd" d="M137.538 85.1271C137.538 85.66 138.225 86.0792 139.095 86.0792C139.965 86.0792 140.652 85.66 140.652 85.1271C140.652 84.5942 139.944 84.1821 139.095 84.1821C138.246 84.1821 137.538 84.5942 137.538 85.1271ZM137.68 85.1271C137.68 84.7079 138.345 84.3598 139.095 84.3598V84.3811C139.845 84.3811 140.475 84.7079 140.475 85.1271C140.475 85.5463 139.881 85.9016 139.095 85.9016C138.309 85.9016 137.68 85.5463 137.68 85.1271Z" fill="#A7A9AC"/>
<path id="Path_7" d="M145.28 78.0217H142.138C142.093 78.0183 142.057 77.9821 142.053 77.9365C142.053 77.8881 142.09 77.8478 142.138 77.8441H145.28C145.304 77.844 145.327 77.854 145.343 77.8715C145.359 77.8891 145.367 77.9126 145.365 77.9365C145.365 77.9835 145.327 78.0217 145.28 78.0217Z" fill="#A7A9AC"/>
<path id="Path_8" d="M133.717 100.403C133.641 100.404 133.567 100.381 133.504 100.339C133.349 100.221 133.315 100.001 133.426 99.8417L143.461 86.0149C143.517 85.9384 143.6 85.8871 143.693 85.8725C143.786 85.8578 143.881 85.8809 143.957 85.9367C144.112 86.0544 144.146 86.2743 144.035 86.4341L134 100.289C133.927 100.367 133.823 100.409 133.717 100.403Z" fill="white"/>
<path id="Shape_7" fill-rule="evenodd" clip-rule="evenodd" d="M114.616 78.6471C114.616 79.5105 115.313 80.2103 116.173 80.2103C117.033 80.2103 117.73 79.5105 117.73 78.6471C117.73 77.7838 117.033 77.084 116.173 77.084C115.313 77.084 114.616 77.7838 114.616 78.6471ZM115.324 78.6471C115.324 78.1762 115.704 77.7945 116.173 77.7945C116.399 77.7926 116.616 77.8818 116.776 78.0421C116.935 78.2024 117.024 78.4204 117.022 78.6471C117.022 79.118 116.642 79.4998 116.173 79.4998C115.704 79.4998 115.324 79.118 115.324 78.6471Z" fill="#D1D3D4"/>
<rect id="Rectangle_3" x="18.7734" y="100.652" width="159.74" height="6.79974" fill="white"/>
<path id="Shape_8" fill-rule="evenodd" clip-rule="evenodd" d="M18.7733 107.807H178.521C178.716 107.807 178.875 107.648 178.875 107.452V100.652C178.871 100.458 178.715 100.301 178.521 100.297H18.7733C18.5794 100.301 18.4232 100.458 18.4194 100.652V107.452C18.4194 107.648 18.5779 107.807 18.7733 107.807ZM178.139 107.097H19.1271V101H178.139V107.097Z" fill="#231F20"/>
<path id="Path_9" d="M78.8564 137.436C79.005 137.94 70.0669 170.155 70.0669 170.155L82.5577 172.173L97.3201 127.666L78.8564 137.436Z" fill="white"/>
<path id="Shape_9" fill-rule="evenodd" clip-rule="evenodd" d="M82.5008 172.529H82.5574C82.707 172.531 82.8412 172.436 82.89 172.294L97.6595 127.787C97.6999 127.649 97.6587 127.5 97.5534 127.403C97.4411 127.312 97.2861 127.296 97.1571 127.361L78.6934 137.13C78.5675 137.195 78.4923 137.33 78.5023 137.471C78.4032 138.537 73.2088 157.515 69.7199 170.063C69.6978 170.162 69.7129 170.266 69.7623 170.355C69.8192 170.439 69.9092 170.496 70.01 170.511L82.5008 172.529ZM82.3309 171.776L70.5266 169.864H70.5125C75.8768 150.524 78.7854 139.717 79.1746 137.677L96.7254 128.398L82.3309 171.776Z" fill="#231F20"/>
<path id="Path_10" d="M69.3095 168.763L67.4058 174.774L97.3199 177.097C95.9151 174.257 93.4861 172.059 90.5261 170.951C87.4193 169.857 84.0719 168.55 84.0719 168.55L82.5575 172.173L69.3095 168.763Z" fill="#231F20"/>
<path id="Shape_10" fill-rule="evenodd" clip-rule="evenodd" d="M67.4056 175.129L97.3198 177.452C97.4616 177.487 97.6098 177.427 97.6878 177.303C97.7483 177.195 97.7483 177.063 97.6878 176.955C96.2476 174.022 93.743 171.754 90.6887 170.617C88.4573 169.833 86.084 168.924 84.9391 168.486C84.5082 168.321 84.2513 168.223 84.2416 168.223C84.1562 168.188 84.0605 168.188 83.9755 168.224C83.8904 168.26 83.8232 168.329 83.7887 168.415L82.3733 171.754L69.4225 168.422C69.2415 168.375 69.0556 168.478 68.9979 168.656L67.0942 174.667C67.0615 174.771 67.0778 174.884 67.1385 174.974C67.1992 175.064 67.2976 175.121 67.4056 175.129ZM96.7112 176.699L67.8727 174.454L69.5429 169.21L82.4653 172.521C82.6377 172.563 82.8147 172.473 82.8829 172.308L84.2629 169.011C84.3006 169.026 84.3415 169.041 84.3853 169.058C85.3998 169.445 87.9908 170.434 90.4127 171.285C93.0801 172.292 95.3098 174.208 96.7112 176.699Z" fill="#231F20"/>
<path id="Path_11" d="M48.3122 137.862L46.1891 171.797C46.1891 171.797 39.0131 172.046 37.2156 173.31C35.418 174.575 33.9531 180.302 33.9531 180.302H36.1894C36.1894 180.302 37.4916 176.039 38.9211 175.527C40.3507 175.016 48.475 174.817 48.475 174.817C48.475 174.817 52.3956 176.337 53.0254 178.945C53.5208 180.998 53.3793 181.474 53.3793 181.474H55.8562C55.8502 180.306 55.6835 179.144 55.3608 178.021C54.8654 176.6 53.0042 174.902 53.0042 174.902C53.0042 174.902 57.1017 174.987 58.4676 174.987C59.8334 174.987 61.2559 177.602 61.2559 177.602H63.9239C63.9239 177.602 61.1356 172.884 59.331 172.55C57.5264 172.216 52.898 171.406 52.898 171.406L51.6384 139.788L48.3122 137.862Z" fill="#231F20"/>
<path id="Shape_11" fill-rule="evenodd" clip-rule="evenodd" d="M53.4079 181.836H55.8848C56.0747 181.833 56.2278 181.679 56.2316 181.488C56.2284 180.285 56.0544 179.089 55.7149 177.936C55.2877 176.951 54.6722 176.06 53.9032 175.314C54.1025 175.317 54.3268 175.321 54.5672 175.325C55.881 175.347 57.6755 175.378 58.4891 175.378C59.3242 175.378 60.4565 176.87 60.966 177.808C61.0294 177.921 61.1481 177.991 61.2774 177.993H63.9454C64.0747 177.991 64.1934 177.921 64.2568 177.808C64.32 177.698 64.32 177.562 64.2568 177.453C63.9666 176.955 61.3269 172.593 59.4303 172.237C57.9017 171.946 54.3066 171.321 53.2734 171.143L52.0208 139.809C52.0165 139.687 51.9494 139.577 51.8439 139.518L48.4894 137.578C48.3832 137.521 48.2559 137.521 48.1497 137.578C48.0442 137.638 47.9754 137.747 47.9657 137.869L45.8851 171.491C44.4414 171.555 38.702 171.889 37.0389 173.054C35.1565 174.376 33.6986 180.01 33.642 180.245C33.6164 180.351 33.6398 180.463 33.7057 180.55C33.7716 180.637 33.873 180.689 33.9817 180.693H36.2392C36.3957 180.69 36.5329 180.587 36.5789 180.437C37.0602 178.866 38.1712 176.238 39.0912 175.896C40.2023 175.449 46.1611 175.236 48.4611 175.186C48.9282 175.385 52.1765 176.813 52.7072 179.037C52.9496 179.792 53.0714 180.581 53.0682 181.375C53.0348 181.483 53.0531 181.601 53.1177 181.694C53.1888 181.782 53.295 181.834 53.4079 181.836ZM55.5097 181.126H53.7759C53.7134 180.356 53.5759 179.595 53.3654 178.852C52.7002 176.095 48.7654 174.546 48.5956 174.483H48.4611C48.1285 174.483 40.1316 174.703 38.7869 175.193C37.4423 175.683 36.2817 178.945 35.9562 179.946H34.4417C34.9442 178.142 36.1756 174.497 37.4494 173.601C38.8506 172.642 44.2645 172.251 46.2319 172.18C46.4138 172.173 46.5608 172.029 46.5716 171.846L48.6309 138.452L51.3202 140.008L52.5586 171.427C52.5632 171.598 52.688 171.741 52.8559 171.768C52.9125 171.775 57.5054 172.571 59.2817 172.905C60.4706 173.125 62.3531 175.754 63.3014 177.254H61.4756C61.0934 176.593 59.8337 174.639 58.482 174.639C57.3338 174.639 54.2299 174.577 53.2953 174.559C53.1296 174.556 53.0321 174.554 53.0257 174.554C52.8783 174.557 52.7461 174.646 52.686 174.781C52.6354 174.918 52.6717 175.072 52.778 175.172C52.7789 175.173 52.7826 175.176 52.7889 175.182C52.9404 175.323 54.6011 176.866 55.0426 178.142C55.3292 179.111 55.4863 180.115 55.5097 181.126Z" fill="#231F20"/>
<path id="Path_12" d="M89.231 116.22C89.231 116.22 117.496 117.733 119.28 121.776C121.063 125.819 107.957 170.277 107.957 170.277C107.957 170.277 121.792 175.08 119.527 176.089C117.263 177.098 94.6166 175.08 94.6166 175.08L105.352 133.869L77.3843 131.979L89.231 116.22Z" fill="white"/>
<path id="Shape_12" fill-rule="evenodd" clip-rule="evenodd" d="M94.6094 175.435C96.4281 175.598 109.329 176.728 115.968 176.728C117.224 176.806 118.485 176.7 119.711 176.415C119.988 176.328 120.175 176.068 120.171 175.776C120.115 174.319 112.188 171.371 108.431 170.056C109.719 165.686 121.374 125.606 119.626 121.634C119.329 120.959 118.43 118.92 103.647 117.129C96.4281 116.248 89.337 115.864 89.2663 115.864C89.148 115.849 89.0319 115.905 88.969 116.006L77.1152 131.794C77.0341 131.897 77.0177 132.037 77.0727 132.157C77.1312 132.271 77.2428 132.348 77.37 132.363L104.913 134.224L94.298 174.987C94.2704 175.089 94.2885 175.198 94.3475 175.286C94.409 175.371 94.5046 175.426 94.6094 175.435ZM119.407 175.762C117.659 176.543 101.651 175.342 95.0835 174.76L105.713 133.997C105.733 133.894 105.713 133.787 105.656 133.698C105.592 133.614 105.494 133.562 105.388 133.556L78.0706 131.702L89.3937 116.589C97.334 117.022 117.532 118.706 118.947 121.925C120.362 125.144 111.247 157.856 107.624 170.184C107.567 170.366 107.664 170.561 107.843 170.625C113.123 172.451 118.94 174.902 119.407 175.762Z" fill="#231F20"/>
<path id="Path_13" d="M79.6421 90.9532C79.6421 90.9532 94.1639 109.143 100.37 108.638C106.577 108.134 124.354 85.7095 124.354 85.7095C127.567 81.8585 131.162 76.9701 128.862 71.6624C128.636 71.1509 128.239 70.6038 127.687 70.6464C127.455 70.6822 127.235 70.7722 127.043 70.9093L125.062 72.1314C125.125 71.5843 124.432 71.1935 123.901 71.3427C123.385 71.5455 122.954 71.9223 122.684 72.4085C120.625 75.3501 119.294 78.1495 119.407 81.7732L98.6295 92.4311L90.3849 83.2724" fill="white"/>
<path id="Path_14" d="M100.122 109.001C93.6754 109.001 79.9532 91.948 79.3658 91.1735C79.2641 91.0198 79.2965 90.8135 79.4403 90.6987C79.5842 90.5839 79.7917 90.5988 79.9178 90.733C80.0594 90.9106 94.0151 108.297 100.101 108.297H100.342C106.329 107.814 123.887 85.7238 124.057 85.4964C127.376 81.5316 130.723 76.8848 128.522 71.8188C128.437 71.6198 128.14 70.9874 127.701 71.0159C127.524 71.0482 127.357 71.1212 127.213 71.229L125.217 72.444C125.102 72.5155 124.957 72.5148 124.842 72.4422C124.728 72.3697 124.665 72.238 124.679 72.103C124.688 71.9984 124.64 71.8974 124.552 71.8401C124.389 71.709 124.177 71.657 123.972 71.698C123.536 71.8846 123.175 72.2122 122.946 72.6288C121.205 75.1156 119.612 77.9435 119.733 81.7803C119.737 81.9171 119.663 82.0443 119.542 82.1072L98.7637 92.7651C98.6209 92.8388 98.4465 92.8067 98.3391 92.6869L90.1015 83.514C90.0345 83.4473 89.9968 83.3565 89.9968 83.2618C89.9968 83.1671 90.0345 83.0763 90.1015 83.0095C90.2415 82.8733 90.464 82.8733 90.604 83.0095L98.6575 91.948L119.004 81.5388C118.94 77.6095 120.568 74.7177 122.344 72.1811C122.663 71.6264 123.163 71.1996 123.759 70.9732C124.195 70.8681 124.654 70.9762 124.998 71.2645C125.093 71.3479 125.174 71.4463 125.238 71.5559L126.824 70.5824C127.063 70.4141 127.34 70.3068 127.63 70.2698C128.246 70.2201 128.791 70.6748 129.145 71.499C131.707 77.3964 127.078 82.9385 124.587 85.9156C123.88 86.8251 106.669 108.461 100.377 108.972L100.122 109.001Z" fill="#231F20"/>
<path id="Path_15" d="M32.1063 87.8485C32.1063 87.8485 24.626 104.866 27.4002 106.685C30.1743 108.503 47.0599 106.685 47.0599 106.685L45.595 84.6582" fill="white"/>
<path id="Path_16" d="M33.8186 107.807C30.7967 107.807 28.157 107.594 27.1946 106.954C26.7133 106.642 25.2413 105.683 28.3764 96.467C29.8838 92.0262 31.7592 87.7488 31.7804 87.7062C31.8211 87.5763 31.9323 87.4811 32.0665 87.4613C32.2007 87.4415 32.3344 87.5005 32.4107 87.6132C32.4869 87.7259 32.4922 87.8724 32.4244 87.9904C29.5937 94.4633 25.758 105.171 27.5838 106.358C29.7069 107.779 41.7377 106.841 46.6915 106.358L45.2761 84.6794C45.2624 84.4831 45.4098 84.313 45.6052 84.2992C45.8006 84.2855 45.9701 84.4334 45.9838 84.6296L47.4487 106.656C47.4611 106.847 47.3202 107.014 47.1303 107.033C46.6349 107.061 39.5013 107.807 33.8186 107.807Z" fill="#231F20"/>
<path id="Path_17" d="M38.1992 116.689C38.1992 116.689 34.5404 124.846 38.4398 129.99C42.3392 135.134 96.4706 135.752 96.4706 135.752L100.356 116.22L77.7097 113.122L76.3933 106.365L38.1992 116.689Z" fill="white"/>
<path id="Shape_13" fill-rule="evenodd" clip-rule="evenodd" d="M68.885 135.155C82.7841 135.944 96.3506 136.107 96.485 136.107C96.6554 136.107 96.8011 135.984 96.8318 135.816L100.675 116.262C100.695 116.168 100.675 116.07 100.618 115.992C100.563 115.91 100.475 115.855 100.377 115.843L78.0072 112.788L76.7404 106.272C76.7219 106.178 76.6656 106.096 76.5847 106.045C76.5016 105.989 76.3976 105.973 76.3016 106.002L38.0863 116.326C37.9819 116.353 37.8956 116.426 37.8527 116.525C37.697 116.866 34.1586 124.938 38.1358 130.182C39.8201 132.42 50.1666 134.089 68.885 135.155ZM38.7232 129.777C35.2838 125.243 37.9943 118.117 38.4543 116.987L76.1672 106.805L77.4056 113.2C77.4343 113.349 77.5536 113.463 77.7029 113.484L99.9527 116.525L96.1949 135.404C77.4481 135.177 41.7096 133.713 38.7232 129.777Z" fill="#231F20"/>
<path id="Path_18" d="M60.3784 47.9735C59.8261 47.6407 59.345 47.2012 58.9631 46.6803C58.433 45.9174 58.049 45.062 57.8308 44.158C55.9129 37.1948 55.8988 28.2777 62.0769 23.5101C65.7745 20.6732 70.6126 19.8124 75.056 21.2009C78.0566 22.1814 80.6043 26.3238 81.9418 29.0167C83.0388 31.198 83.7818 33.5711 85.084 35.6317C86.3861 37.6922 88.4597 39.4969 90.8941 39.6177C88.9407 40.7151 86.595 40.8564 84.5249 40.0014C85.4978 41.3126 87.1441 41.932 88.7357 41.5859C87.3203 42.7156 85.2963 42.673 83.5129 42.2964C81.7295 41.9198 79.9744 41.3514 78.1415 41.5859C75.3108 41.9056 73.4708 43.9946 71.2557 45.508C68.4461 47.3554 63.5914 49.8422 60.3784 47.9735Z" fill="white"/>
<path id="Shape_14" fill-rule="evenodd" clip-rule="evenodd" d="M60.2155 48.2861C61.079 48.7726 62.0564 49.018 63.0463 48.9966C66.2592 48.9966 69.7977 46.8722 71.4466 45.7211C72.0198 45.3232 72.5718 44.8969 73.1097 44.4777C73.1796 44.4245 73.2493 44.3713 73.3189 44.3182C74.8205 43.173 76.2627 42.0731 78.1768 41.8559C79.5209 41.7815 80.8679 41.9352 82.1611 42.3106L82.1611 42.3106C82.5857 42.4101 83.0103 42.5095 83.4349 42.5877C85.8269 43.0495 87.6811 42.7795 88.9478 41.7777C89.0807 41.6746 89.1232 41.492 89.0495 41.3406C88.9758 41.1891 88.8062 41.1105 88.6435 41.1524C87.6932 41.3634 86.6985 41.1952 85.8694 40.6835C87.6369 41.016 89.4647 40.7169 91.0355 39.838C91.1763 39.7637 91.2468 39.6013 91.2054 39.4472C91.1702 39.2936 91.0367 39.1828 90.8798 39.1772C87.9854 39.0351 86.0605 36.463 85.3528 35.3616C84.5976 34.0845 83.9445 32.7493 83.3995 31.3685C83.0386 30.5087 82.6565 29.6206 82.2318 28.768C80.9792 26.2456 78.3678 21.8545 75.1549 20.8101C70.5986 19.3768 65.6326 20.2595 61.8432 23.1761C54.094 29.173 56.5568 40.783 57.4909 44.1935C57.7184 45.1505 58.1216 46.0565 58.6798 46.8651C59.0881 47.4405 59.611 47.9245 60.2155 48.2861ZM62.2608 23.7659C64.711 21.884 67.7106 20.8651 70.7955 20.8669C72.2051 20.8601 73.6069 21.0759 74.9497 21.5064C78.0352 22.5082 80.6466 27.1551 81.6232 29.109C81.9821 29.7781 82.2768 30.4795 82.5663 31.1686C82.6365 31.3356 82.7063 31.502 82.7768 31.6669C83.3348 33.0837 84.007 34.4524 84.7866 35.7595C85.8645 37.6479 87.61 39.0605 89.6768 39.7172C88.0546 40.2975 86.2766 40.2595 84.6805 39.6106C84.5356 39.5455 84.3652 39.5898 84.27 39.7172C84.1756 39.8435 84.1756 40.0172 84.27 40.1435C84.977 41.0948 86.0254 41.732 87.1928 41.9198C86.0149 42.1953 84.7897 42.1953 83.6118 41.9198C83.2987 41.8612 82.9856 41.7906 82.6725 41.72C82.5681 41.6964 82.4636 41.6729 82.3592 41.6498C80.9812 41.2496 79.5448 41.0909 78.1131 41.1809C75.9121 41.4295 74.2703 42.7085 72.6851 43.9448C72.1614 44.3569 71.6165 44.7832 71.0645 45.1598C69.4651 46.2469 63.9805 49.6574 60.5694 47.668C60.0514 47.3624 59.601 46.9538 59.246 46.4672C58.7374 45.732 58.3702 44.9078 58.1632 44.0372C57.2503 40.7261 54.8654 29.4998 62.2608 23.7659Z" fill="#231F20"/>
<path id="Path_19" d="M79.5571 42.9146C79.5571 42.9146 81.4891 48.9824 80.4771 49.8422C79.4651 50.7019 77.3633 49.3519 77.3633 49.3519" fill="white"/>
<path id="Path_20" d="M79.6206 50.4887C78.755 50.4143 77.9211 50.1263 77.1932 49.6503C77.0795 49.5852 77.0109 49.4623 77.0148 49.331C77.0187 49.1996 77.0946 49.0812 77.212 49.0231C77.3294 48.9649 77.4691 48.9766 77.5753 49.0534C78.0707 49.3661 79.6206 50.1405 80.2646 49.5721C80.7529 49.1529 80.123 45.849 79.2172 43.0282C79.1615 42.8401 79.265 42.6416 79.4507 42.5805C79.6363 42.5199 79.8359 42.6216 79.8966 42.8079C80.3636 44.2858 81.8144 49.2026 80.7246 50.1121C80.4162 50.3714 80.0224 50.5057 79.6206 50.4887Z" fill="#231F20"/>
<path id="Path_21" d="M80.7319 35.9585C82.3808 38.3175 80.7319 41.8559 80.0242 44.2646C79.0476 47.6561 77.9931 51.0217 76.8608 54.3611C76.1531 56.4927 70.5765 54.9509 69.7839 54.0343L68.2694 62.7809L56.543 58.7096L60.315 48.1014C60.315 48.1014 64.087 49.1956 67.4839 45.4227C70.8808 41.6498 73.2445 32.0293 73.2445 32.0293C73.2445 32.0293 79.1254 33.6493 80.7319 35.9585Z" fill="white"/>
<path id="Shape_15" fill-rule="evenodd" clip-rule="evenodd" d="M68.1492 63.1363H68.2624C68.3153 63.1324 68.3664 63.1153 68.411 63.0865C68.502 63.0369 68.5648 62.9476 68.5809 62.845L69.9963 54.6597C71.6954 55.5481 73.6193 55.9092 75.5233 55.6971C76.2426 55.634 76.8686 55.1777 77.151 54.5105C78.2833 51.1781 79.3449 47.7747 80.3215 44.3997C80.4418 43.9947 80.5833 43.5613 80.732 43.1065L80.7459 43.064C81.5147 40.7275 82.4428 37.9068 80.9796 35.7881C79.3446 33.4479 73.7281 31.8495 73.3042 31.7288C73.2969 31.7267 73.2912 31.7251 73.287 31.7239C73.2009 31.6884 73.1043 31.6884 73.0181 31.7239C72.9355 31.7712 72.8765 31.8511 72.8553 31.9442C72.8553 32.0437 70.3926 41.6287 67.1938 45.1813C64.0508 48.672 60.6481 47.8273 60.3895 47.7631C60.3849 47.762 60.3813 47.7611 60.3787 47.7605C60.2013 47.7086 60.0146 47.8055 59.9541 47.9808L56.2104 58.6244C56.1786 58.714 56.1786 58.8119 56.2104 58.9015C56.2513 58.9868 56.3257 59.0511 56.4156 59.0792L68.1492 63.1363ZM67.9864 62.3121L56.9889 58.4894L60.5061 48.4994C61.5323 48.6984 64.7452 48.9471 67.7104 45.6573C70.796 42.2326 72.9898 34.2889 73.464 32.4771C74.752 32.8608 79.1396 34.3387 80.4135 36.1576C81.6713 37.9537 80.8039 40.6089 80.1005 42.7618L80.0738 42.8437C80.0256 42.9959 79.9773 43.1451 79.9301 43.2913C79.8317 43.5956 79.7375 43.8869 79.6563 44.1652C78.6867 47.5331 77.6181 50.9223 76.4929 54.2405C76.3655 54.6242 75.9975 54.88 75.3889 55.0008C73.5913 55.356 70.527 54.3897 70.0175 53.8C69.9281 53.6965 69.7875 53.6539 69.6561 53.6903C69.5246 53.7267 69.4257 53.8357 69.4018 53.9705L67.9864 62.3121Z" fill="#231F20"/>
<path id="Path_22" d="M77.4905 51.8031C77.4905 51.8031 74.4121 52.6842 73.7822 49.5649L77.4905 51.8031Z" fill="white"/>
<path id="Path_23" d="M76.5495 52.272C75.9423 52.2876 75.3424 52.1352 74.8157 51.8315C74.0524 51.337 73.537 50.5376 73.4003 49.636C73.3655 49.4417 73.492 49.2553 73.6847 49.2166C73.8775 49.1779 74.0656 49.3012 74.108 49.4939C74.203 50.1941 74.5886 50.8214 75.1695 51.2205C75.8502 51.5645 76.6318 51.6503 77.3704 51.462C77.4968 51.4278 77.6319 51.4638 77.7246 51.5566C77.8174 51.6494 77.8538 51.7848 77.8202 51.9119C77.7865 52.0389 77.6879 52.1383 77.5615 52.1726C77.2295 52.247 76.8896 52.2804 76.5495 52.272Z" fill="#231F20"/>
<path id="Path_24" d="M72.4588 43.2625C72.6025 42.3854 72.5021 41.4854 72.1686 40.662C71.9961 39.9971 71.7292 39.3605 71.376 38.772C71.0042 38.1845 70.393 37.7918 69.7059 37.6991C69.0885 37.688 68.4968 37.9474 68.0853 38.4096C67.6721 38.8548 67.3669 39.3897 67.1936 39.9728C66.3606 42.5326 66.9454 45.344 68.7293 47.3551L68.5948 47.0993" fill="white"/>
<path id="Path_25" d="M68.7295 47.7106C68.6305 47.7096 68.5362 47.6686 68.4677 47.5969C66.5954 45.4791 65.9813 42.5236 66.8541 39.8308C67.0438 39.1963 67.3782 38.6148 67.8307 38.1327C68.3239 37.6087 69.0168 37.3217 69.7344 37.344C70.532 37.4347 71.2441 37.8878 71.6664 38.5732C72.0423 39.189 72.3261 39.8569 72.5086 40.5556C72.8633 41.4408 72.9662 42.4075 72.8058 43.3479C72.754 43.5394 72.5584 43.6535 72.367 43.6037C72.1801 43.5518 72.0697 43.3585 72.1193 43.1703C72.2379 42.3581 72.1377 41.5289 71.8292 40.7687C71.6705 40.1373 71.4176 39.5337 71.079 38.9782C70.7717 38.4702 70.2508 38.1302 69.6637 38.0545C69.1541 38.0447 68.6648 38.2541 68.319 38.63C67.9426 39.0346 67.6641 39.5209 67.5052 40.0511C66.7613 42.3362 67.1934 44.8429 68.6587 46.7442C68.7582 46.7717 68.8425 46.8383 68.8923 46.929L69.0197 47.1848C69.1044 47.343 69.0554 47.54 68.9064 47.6395C68.8556 47.68 68.7941 47.7047 68.7295 47.7106Z" fill="#231F20"/>
<ellipse id="Oval" cx="79.2966" cy="39.9851" rx="1.25739" ry="0.5" transform="rotate(-77.39 79.2966 39.9851)" fill="#231F20"/>
<path id="Path_26" d="M69.7767 54.0344C68.2391 53.0327 66.7665 51.9339 65.3678 50.7446C65.3678 50.7446 64.6601 56.8978 68.8567 58.3117L69.7767 54.0344Z" fill="#231F20"/>
<path id="Shape_16" fill-rule="evenodd" clip-rule="evenodd" d="M68.7434 58.6669C68.7808 58.6737 68.8192 58.6737 68.8566 58.6669C68.9181 58.6669 68.9787 58.6523 69.0335 58.6243C69.1202 58.5733 69.1817 58.4883 69.2034 58.3898L70.1234 54.1266C70.1503 53.9832 70.089 53.8376 69.9677 53.7572C68.4438 52.7598 66.9831 51.6682 65.5942 50.4887C65.4924 50.4069 65.3551 50.3853 65.2332 50.4319C65.1131 50.4822 65.0293 50.5935 65.0138 50.7232C64.9855 50.9861 64.3415 57.1819 68.7434 58.6669ZM68.6018 57.8285C65.8843 56.6206 65.6862 52.9898 65.6862 51.4693C66.8694 52.4427 68.1024 53.3534 69.3803 54.1977L68.6018 57.8285Z" fill="#231F20"/>
<path id="Path_27" d="M36.0054 119.382C36.0054 119.382 36.6423 75.8973 43.1389 65.886C49.6355 55.8747 66.4928 53.6152 74.5321 59.5836C82.5715 65.552 78.7004 111.168 78.7004 111.168C78.7004 111.168 53.0678 119.382 36.0054 119.382Z" fill="#E7816B"/>
<path id="Path_28" d="M68.9206 57.0254C73.1968 58.7695 77.1935 61.1373 80.7815 64.0525C86.3439 68.6922 98.0846 88.6438 98.0846 88.6438L82.6002 98.0583L68.7012 80.8493L68.9206 57.0254Z" fill="#E7816B"/>
<path id="Path_29" d="M49.8338 59.7329C49.8338 59.7329 41.7307 60.6495 37.4421 69.5808C35.1209 74.4266 29.1763 90.0724 29.1763 90.0724L47.0526 92.14L49.8338 59.7329Z" fill="#E7816B"/>
<path id="Path_30" d="M81.4392 96.9715C81.3263 96.971 81.2207 96.9153 81.1562 96.8222L67.3491 77.9436C67.2928 77.8682 67.2686 77.7734 67.2819 77.6802C67.2951 77.5869 67.3448 77.5027 67.4199 77.4462C67.579 77.334 67.798 77.3686 67.9152 77.5243L81.7223 96.403C81.8027 96.5107 81.8157 96.6547 81.7557 96.7751C81.6958 96.8954 81.5733 96.9715 81.4392 96.9715Z" fill="#231F20"/>
<path id="Path_31" d="M122.655 75.6341L126.109 64.8696L127.185 65.1823L125.012 75.7975C125.012 75.7975 123.483 77.2754 122.655 75.6341Z" fill="#231F20"/>
<path id="Shape_17" fill-rule="evenodd" clip-rule="evenodd" d="M123.476 76.7641H123.717C124.294 76.725 124.839 76.4865 125.26 76.0891C125.31 76.0414 125.345 75.9794 125.359 75.9115L127.532 65.2536C127.568 65.0724 127.461 64.8932 127.284 64.8415L126.208 64.5289C126.023 64.4811 125.833 64.5828 125.769 64.7633L122.337 75.542C122.302 75.6285 122.302 75.7255 122.337 75.812C122.537 76.2991 122.963 76.6556 123.476 76.7641ZM123.568 76.0465C123.324 75.9865 123.119 75.8197 123.009 75.5917L126.314 65.3104L126.746 65.4312L124.658 75.6131C124.365 75.8946 123.974 76.0501 123.568 76.0465Z" fill="#231F20"/>
<path id="Path_32" d="M57.3497 51.2631C50.9805 49.842 43.9036 50.8368 38.7586 54.8157C36.5782 56.4135 34.9402 58.6461 34.0666 61.2104C33.2265 63.8257 33.7184 66.6885 35.3829 68.8699C40.266 74.7602 50.9876 74.7318 57.6186 72.8062C62.1408 71.4989 75.5303 65.1183 71.8432 58.8515C69.1894 54.3681 62.1266 52.2933 57.3497 51.2631Z" fill="#E7816B"/>
<path id="Path_33" d="M49.2395 73.3391C45.0194 73.2162 40.8984 72.026 37.2583 69.8788C37.1769 69.8304 37.1187 69.7506 37.0973 69.658C37.076 69.5654 37.0932 69.4681 37.1451 69.3886C37.2508 69.224 37.4692 69.1763 37.6334 69.282C37.7183 69.3388 46.4725 74.8028 54.7595 71.648C58.7368 70.1346 61.1288 67.4488 63.4146 64.8554C65.9411 62.0133 68.326 59.3275 72.4448 58.9509C72.5387 58.9431 72.6318 58.9732 72.7036 59.0345C72.7753 59.0959 72.8197 59.1834 72.8269 59.2778C72.8368 59.3713 72.8085 59.4649 72.7485 59.5372C72.6885 59.6095 72.6019 59.6543 72.5085 59.6615C68.6728 60.0096 66.4789 62.5036 63.9454 65.3457C61.6949 67.8822 59.1472 70.7528 55.0072 72.3301C53.1612 73.0137 51.207 73.3555 49.2395 73.3391Z" fill="#231F20"/>
<path id="Path_34" d="M36.6427 103.842C36.5488 103.838 36.4603 103.797 36.3966 103.728C36.3329 103.659 36.2992 103.567 36.303 103.473C36.8196 92.225 39.1338 76.0393 39.1338 75.8758C39.1664 75.6836 39.3446 75.5517 39.5372 75.5774C39.7276 75.6067 39.8598 75.7836 39.8344 75.9753C39.8344 76.1387 37.492 92.3174 37.0036 103.501C36.996 103.695 36.8355 103.846 36.6427 103.842Z" fill="#231F20"/>
<path id="Path_35" d="M90.9155 174.319H105.954C105.954 174.319 107.589 170.66 111.113 170.156C111.113 170.156 124.828 175.975 122.811 177.169C120.794 178.362 89.854 178.234 89.854 178.234L90.9155 174.319Z" fill="#231F20"/>
<path id="Shape_18" fill-rule="evenodd" clip-rule="evenodd" d="M89.8466 178.596H93.01C101.212 178.596 121.275 178.49 122.995 177.453C123.234 177.325 123.38 177.071 123.37 176.799C123.278 175.037 114.078 171.001 111.247 169.807C111.187 169.79 111.123 169.79 111.063 169.807C107.857 170.269 106.152 173.154 105.734 173.971H90.9152C90.7533 173.969 90.6105 174.077 90.5684 174.234L89.5069 178.149C89.4777 178.257 89.5013 178.373 89.5706 178.461C89.6367 178.547 89.7387 178.597 89.8466 178.596ZM122.634 176.863C121.233 177.694 102.72 177.921 90.3137 177.886L91.1841 174.674H105.954C106.093 174.676 106.221 174.595 106.279 174.468C106.293 174.433 107.85 171.044 111.063 170.518C116.64 172.891 122.634 175.982 122.634 176.863Z" fill="#231F20"/>
<path id="Path_36" d="M79.5498 139.368C89.1249 137.343 95.5437 132.846 91.7787 126.778C88.0138 120.71 60.9729 124.646 55.6864 120.149C50.4 115.651 52.2895 91.7987 46.4864 87.7132C40.6833 83.6277 15.808 79.4995 13.0267 84.6579C10.2455 89.8164 13.0267 127.353 21.1298 135.688C29.2329 144.022 70.2083 141.301 79.5498 139.368Z" fill="#231F20"/>
<path id="Shape_19" fill-rule="evenodd" clip-rule="evenodd" d="M49.862 141.749H51.4614C62.8482 141.749 74.7657 140.704 79.6417 139.624C86.7399 138.125 91.3965 135.489 92.8119 132.206C93.5762 130.43 93.3356 128.512 92.1042 126.522C89.974 123.097 81.0784 122.735 72.4799 122.387L72.4536 122.386C65.4769 122.102 58.2736 121.809 55.927 119.808C53.4574 117.698 52.5727 110.871 51.7165 104.263L51.7162 104.261L51.7122 104.23C50.7722 97.0069 49.801 89.5433 46.6845 87.3509C41.7307 83.8835 23.9464 80.544 16.2537 82.3772C14.4137 82.8461 13.2319 83.5495 12.7153 84.5087C9.70758 90.1148 12.8356 127.666 20.8467 135.965C25.3405 140.569 39.1051 141.656 49.862 141.749ZM16.3953 83.1019C18.1175 82.7446 19.8739 82.5802 21.6322 82.6116C30.1174 82.6116 42.4313 85.2903 46.2528 87.9974C49.126 90.0082 50.0814 97.3693 50.9943 104.418C51.9073 111.466 52.7707 118.124 55.4457 120.412C57.9793 122.579 64.9996 122.863 72.4304 123.161L72.4546 123.162C80.8827 123.503 89.5513 123.854 91.4814 126.963C92.5854 128.746 92.8048 130.444 92.1396 132.007C90.8587 135.034 86.2445 137.592 79.4719 139.013C70.0808 140.967 29.3177 143.639 21.3845 135.461C13.5857 127.417 10.5922 89.9443 13.338 84.8498C13.7485 84.0753 14.7817 83.4856 16.3953 83.1019Z" fill="#231F20"/>
<path id="Path_37" d="M97.3199 119.737H97.2633L74.4473 115.729C74.2518 115.696 74.1203 115.51 74.1536 115.314C74.1868 115.117 74.3721 114.985 74.5676 115.019L97.3836 119.026C97.579 119.044 97.7232 119.217 97.7056 119.413C97.688 119.61 97.5153 119.754 97.3199 119.737Z" fill="#D1D3D4"/>
<path id="Path_38" d="M163.1 166.369L162.392 166.29C162.392 166.084 164.621 145.515 157.53 136.377L158.089 135.944C161.147 139.88 162.923 146.204 163.355 154.737C163.551 158.615 163.465 162.503 163.1 166.369Z" fill="#231F20"/>
<path id="Path_39" d="M160.658 168.99C160.647 168.751 160.671 168.512 160.729 168.28C162.421 157.515 159.554 152.499 156.851 150.183L157.311 149.643C160.142 152.073 163.171 157.302 161.43 168.393C161.387 168.663 161.359 168.841 161.359 168.912L160.658 168.99Z" fill="#231F20"/>
<path id="Path_40" d="M156.986 145.614C156.413 145.277 155.766 145.087 155.103 145.06C153.914 144.889 152.707 145.22 151.77 145.976C151.536 146.204 151.331 146.587 151.543 146.836C151.669 146.951 151.827 147.026 151.996 147.049C152.938 147.319 153.674 148.058 153.942 149.003C153.454 148.641 153.037 148.179 152.527 147.817C152.056 147.42 151.45 147.221 150.836 147.262C150.171 147.42 149.585 147.814 149.187 148.371C148.73 148.862 148.35 149.42 148.062 150.026C147.76 150.635 147.671 151.328 147.807 151.994C148.453 151.808 149.13 151.762 149.795 151.859C150.268 151.902 150.718 152.088 151.083 152.392C151.194 152.478 151.273 152.598 151.31 152.733C151.334 153.019 151.143 153.278 150.864 153.337C150.594 153.401 150.313 153.401 150.043 153.337C149.466 153.219 148.882 153.136 148.295 153.089C148.075 153.06 147.852 153.075 147.637 153.131C147.119 153.422 146.836 154.006 146.929 154.595C146.919 154.836 147.008 155.07 147.177 155.242C147.467 155.469 147.885 155.305 148.224 155.163C148.817 154.915 149.451 154.78 150.093 154.765C150.165 154.759 150.238 154.771 150.305 154.801C150.377 154.852 150.425 154.931 150.436 155.019C150.447 155.107 150.42 155.196 150.362 155.263C150.242 155.397 150.084 155.489 149.909 155.526C149.423 155.68 148.926 155.797 148.422 155.874C148.132 155.917 147.793 155.98 147.651 156.243C147.596 156.359 147.57 156.485 147.573 156.613C147.545 157.577 147.822 158.525 148.366 159.32C148.454 159.464 148.569 159.59 148.706 159.689C148.9 159.793 149.115 159.851 149.335 159.86C151.02 160.035 152.721 159.791 154.289 159.149C154.371 159.121 154.442 159.069 154.494 159C154.586 158.837 154.431 158.645 154.31 158.503C153.787 157.856 153.907 156.925 154.056 156.108C154.068 155.95 154.132 155.799 154.24 155.682C154.445 155.543 154.723 155.586 154.877 155.782C155.02 155.976 155.101 156.208 155.11 156.449C155.215 157.29 155.147 158.144 154.912 158.958C155.727 158.767 156.521 158.496 157.283 158.148C157.899 157.908 158.48 157.585 159.01 157.188C159.542 156.785 159.915 156.207 160.064 155.554C160.096 155.433 160.083 155.305 160.029 155.192C159.974 155.114 159.901 155.051 159.816 155.007C159.078 154.528 158.497 153.841 158.146 153.032C158.075 152.861 158.04 152.627 158.196 152.542C158.262 152.52 158.334 152.52 158.401 152.542C159.293 152.691 159.746 153.693 160.482 154.225C160.54 154.274 160.611 154.304 160.687 154.311C160.778 154.311 160.866 154.272 160.927 154.204C161.223 153.928 161.424 153.565 161.501 153.167C161.714 152.385 161.67 151.555 161.373 150.801C161.064 150.045 160.428 149.472 159.646 149.245C159.285 149.161 158.91 149.144 158.542 149.195C158.415 149.195 157.736 149.437 157.644 149.351C157.552 149.266 157.913 148.754 157.998 148.584C158.458 147.532 157.842 146.182 156.986 145.614Z" fill="#231F20"/>
<path id="Path_41" d="M167.679 139.184C166.551 139.174 165.491 139.724 164.848 140.654C164.419 141.397 164.245 142.261 164.353 143.113C164.463 143.955 164.667 144.782 164.961 145.578C165.517 144.577 166.528 143.915 167.665 143.809C168.818 143.71 167.474 144.825 167.275 145.06C166.624 145.827 166.002 146.616 165.386 147.412C165.206 147.611 165.085 147.857 165.039 148.122C165.037 148.408 165.121 148.688 165.28 148.925C165.759 149.99 166.487 150.924 167.403 151.646C167.656 151.869 168.013 151.927 168.323 151.795C168.466 151.675 168.574 151.518 168.634 151.341C168.973 150.626 169.414 149.966 169.943 149.38C170.071 149.23 170.276 149.081 170.439 149.188C170.602 149.294 170.573 149.458 170.559 149.614L170.411 151.199C170.312 151.769 170.346 152.356 170.51 152.911C170.885 153.92 172.017 154.424 173.071 154.623C173.359 154.702 173.662 154.702 173.949 154.623C174.515 154.424 174.749 153.749 174.848 153.153C174.959 152.371 175.28 151.634 175.775 151.021C175.904 152.053 176.233 153.05 176.744 153.955C177.001 154.443 177.355 154.871 177.785 155.213C178.242 155.539 178.767 155.758 179.32 155.853C180.254 156.021 181.205 156.074 182.151 156.009C182.806 156.016 183.458 155.933 184.09 155.76C184.727 155.581 185.273 155.168 185.619 154.602C186.178 153.593 185.746 152.293 185.024 151.398C184.303 150.502 183.326 149.834 182.576 148.96C183.512 149.219 184.383 149.674 185.131 150.296C185.309 150.502 185.567 150.621 185.838 150.623C185.963 150.596 186.076 150.532 186.164 150.438C187.282 149.316 185.994 147.419 185.399 146.41C185.083 145.692 184.521 145.112 183.814 144.775C183.396 144.669 182.958 144.669 182.54 144.775C181.903 144.882 178.747 146.324 180.092 144.427C180.825 143.576 181.902 143.103 183.022 143.141C183.567 143.191 184.395 143.632 184.38 142.608C184.342 142.242 184.2 141.894 183.97 141.607C183.532 140.949 183.06 140.316 182.555 139.709C182.429 139.524 182.24 139.39 182.024 139.333C181.836 139.326 181.65 139.378 181.493 139.482C180.202 140.267 178.776 140.802 177.289 141.059C176.95 141.059 176.475 140.953 176.532 140.619C176.566 140.497 176.644 140.393 176.751 140.328C177.65 139.617 178.995 139.923 179.915 139.269C180.192 139.092 180.376 138.8 180.417 138.473C180.417 137.997 180.028 137.62 179.646 137.329C178.691 136.497 177.52 135.952 176.27 135.759C174.409 135.61 172.732 136.839 171.479 138.239C171.062 138.715 170.771 139.951 170.127 139.873C169.721 139.729 169.324 139.56 168.939 139.368C168.531 139.241 168.106 139.178 167.679 139.184Z" fill="#231F20"/>
<path id="Path_42" d="M158.663 129.35C158.583 128.631 158.255 127.962 157.736 127.46C156.787 126.593 155.365 126.551 154.098 126.749C153.148 126.953 152.216 127.231 151.31 127.581C150.397 127.844 150.128 128.05 150.942 128.796C151.515 129.314 153.065 131.169 152.357 132.057C151.649 132.945 150.461 130.679 150.001 130.302C149.4 129.714 148.603 129.372 147.764 129.343C147.03 129.469 146.356 129.827 145.839 130.366C145.288 130.856 144.763 131.375 144.268 131.922C144.188 132 144.125 132.095 144.084 132.199C143.971 132.611 144.53 132.853 144.948 132.91C146.144 133.13 147.481 133.755 147.722 134.949C146.49 135.254 145.33 134.004 144.07 134.139C143.141 134.363 142.385 135.037 142.053 135.937C141.713 136.736 141.608 137.616 141.749 138.473C142.812 138.103 143.951 138.005 145.061 138.189C145.199 138.197 145.33 138.255 145.429 138.352C145.534 138.551 145.462 138.797 145.266 138.907C145.074 139.003 144.857 139.04 144.643 139.013H142.591C142.39 138.992 142.188 139.039 142.018 139.148C141.879 139.292 141.799 139.481 141.791 139.681C141.659 140.623 141.647 141.578 141.756 142.523C141.773 143.11 142.001 143.671 142.4 144.101C142.72 144.343 143.094 144.504 143.49 144.569C144.526 144.819 145.587 144.953 146.653 144.967C146.179 144.301 146.06 143.444 146.335 142.672C146.759 141.678 147.481 142.253 147.517 143.156C147.517 143.582 147.439 144.001 147.425 144.427C147.417 144.508 147.432 144.589 147.467 144.662C147.51 144.717 147.566 144.761 147.63 144.79C148.193 145.095 148.848 145.181 149.47 145.031C149.647 144.996 149.814 144.921 149.958 144.811C150.287 144.417 150.399 143.884 150.255 143.39L149.965 140.825C149.933 140.704 149.959 140.575 150.036 140.477C150.163 140.349 150.39 140.477 150.524 140.576C151.052 141.048 151.334 141.737 151.289 142.445C151.289 142.85 151.119 143.241 151.09 143.639C151.032 144.047 151.193 144.455 151.515 144.712C151.856 144.876 152.249 144.896 152.605 144.768C153.078 144.699 153.515 144.471 153.843 144.122C154.125 143.674 154.21 143.128 154.077 142.616C153.936 142.111 153.836 141.595 153.78 141.074C153.78 140.022 154.855 138.516 155.032 140.363C155.039 140.966 155.004 141.57 154.926 142.168C154.909 142.245 154.909 142.325 154.926 142.402C155.021 142.529 155.172 142.601 155.329 142.594C156.162 142.667 156.998 142.505 157.743 142.125C158.256 141.875 158.706 141.51 159.059 141.059C159.321 140.689 159.541 140.291 159.717 139.873C160.573 138.047 161.939 136.619 160.347 134.665C159.802 133.997 158.79 133.819 158.281 133.137C157.679 132.327 158.606 131.041 158.641 130.025C158.666 129.801 158.673 129.575 158.663 129.35Z" fill="#231F20"/>
<path id="Path_43" d="M153.561 164.237H171.607L170.191 177.836C169.981 179.905 168.243 181.478 166.172 181.474H158.96C156.891 181.474 155.158 179.903 154.948 177.836L153.561 164.237Z" fill="white"/>
<path id="Shape_20" fill-rule="evenodd" clip-rule="evenodd" d="M158.96 181.851H166.2C168.439 181.829 170.303 180.117 170.524 177.879L171.939 164.279C171.952 164.178 171.918 164.075 171.847 164.002C171.78 163.924 171.681 163.88 171.578 163.881H153.532C153.427 163.88 153.327 163.924 153.256 164.002C153.19 164.079 153.157 164.178 153.164 164.279L154.579 177.879C154.805 180.137 156.7 181.855 158.96 181.851ZM155.308 177.808L153.964 164.613H171.203L169.851 177.808C169.662 179.689 168.083 181.121 166.2 181.119H158.96C157.076 181.121 155.497 179.689 155.308 177.808Z" fill="#231F20"/>
<path id="Path_44" d="M165.089 164.486C165.089 164.358 163.673 151.341 170.042 140.854L170.651 141.223C164.416 151.497 165.803 164.272 165.818 164.4L165.089 164.486Z" fill="#231F20"/>
<path id="Path_45" d="M148.698 139.795C148.609 139.793 148.523 139.758 148.458 139.695C148.391 139.629 148.353 139.538 148.353 139.443C148.353 139.349 148.391 139.258 148.458 139.191C152.152 135.283 157.969 132.903 158.217 132.796C158.399 132.724 158.604 132.813 158.677 132.995C158.749 133.178 158.66 133.384 158.479 133.457C158.422 133.457 152.555 135.873 148.967 139.674C148.899 139.752 148.801 139.796 148.698 139.795Z" fill="white"/>
<path id="Path_46" d="M151.189 157.899C151.066 157.898 150.953 157.833 150.889 157.727C150.826 157.621 150.821 157.49 150.878 157.38C152.22 154.849 153.922 152.527 155.931 150.488C155.996 150.421 156.085 150.384 156.179 150.384C156.272 150.384 156.361 150.421 156.426 150.488C156.561 150.626 156.561 150.848 156.426 150.986C154.476 152.975 152.822 155.237 151.515 157.7C151.453 157.823 151.327 157.9 151.189 157.899Z" fill="white"/>
<path id="Path_47" d="M181.281 152.869C181.162 152.868 181.052 152.809 180.983 152.712C180.814 152.449 176.737 146.318 171.904 142.694C171.747 142.576 171.716 142.353 171.833 142.197C171.952 142.043 172.171 142.012 172.328 142.125C177.155 145.785 181.132 151.661 181.571 152.314C181.677 152.477 181.633 152.696 181.472 152.805C181.416 152.846 181.35 152.868 181.281 152.869Z" fill="white"/>
<rect id="Rectangle_4" x="136.441" y="29.4502" width="42.964" height="30.2826" fill="white"/>
<path id="Shape_21" fill-rule="evenodd" clip-rule="evenodd" d="M136.441 60.0879H179.398C179.594 60.0879 179.752 59.9288 179.752 59.7326V29.45C179.752 29.2538 179.594 29.0947 179.398 29.0947H136.441C136.246 29.0947 136.087 29.2538 136.087 29.45V59.7326C136.087 59.9288 136.246 60.0879 136.441 60.0879ZM179.044 59.3774H136.795V29.8053H179.044V59.3774Z" fill="#D1D3D4"/>
<path id="Path_48" d="M164.169 88.4808C163.994 88.4801 163.845 88.3546 163.815 88.1824L162.074 76.8424L159.031 78.1924C158.944 78.2304 158.847 78.2323 158.759 78.1976C158.671 78.1629 158.601 78.0946 158.564 78.0077C158.526 77.922 158.524 77.8248 158.559 77.7379C158.594 77.651 158.662 77.5818 158.748 77.5458L162.222 76.0395C162.32 75.9901 162.436 75.9901 162.534 76.0395C162.631 76.0921 162.699 76.1863 162.718 76.2953L164.529 88.0545C164.546 88.1481 164.523 88.2443 164.467 88.3207C164.411 88.3972 164.326 88.4473 164.232 88.4595L164.169 88.4808Z" fill="#231F20"/>
<path id="Path_49" d="M170.17 100.652H161.309L160.828 81.5034H170.651L170.17 100.652Z" fill="white"/>
<path id="Shape_22" fill-rule="evenodd" clip-rule="evenodd" d="M161.31 101H170.17C170.335 100.989 170.47 100.865 170.496 100.702L170.977 81.5174C170.973 81.3202 170.819 81.1591 170.623 81.1479H160.8C160.704 81.1508 160.612 81.1917 160.545 81.2616C160.48 81.3306 160.445 81.4224 160.446 81.5174L160.956 100.659C160.963 100.85 161.12 101 161.31 101ZM169.844 100.29H161.678L161.189 81.8514H170.304L169.844 100.29Z" fill="#231F20"/>
<rect id="Rectangle_5" x="159.93" y="79.5635" width="11.6203" height="1.93974" fill="white"/>
<path id="Shape_23" fill-rule="evenodd" clip-rule="evenodd" d="M159.93 81.8583H171.55C171.745 81.8583 171.904 81.6992 171.904 81.503V79.5633C171.904 79.3671 171.745 79.208 171.55 79.208H159.93C159.734 79.208 159.576 79.3671 159.576 79.5633V81.503C159.576 81.6992 159.734 81.8583 159.93 81.8583ZM171.196 81.1477H160.283V79.9185H171.196V81.1477Z" fill="#231F20"/>
<path id="Shape_24" fill-rule="evenodd" clip-rule="evenodd" d="M161.76 91.8214C162.533 93.3968 164.188 94.3356 165.931 94.1864C168.175 94.0827 169.912 92.1763 169.816 89.9232C169.81 88.1673 168.732 86.5948 167.1 85.962C165.469 85.3291 163.618 85.7653 162.437 87.0607C161.257 88.3562 160.988 90.246 161.76 91.8214ZM162.416 88.3293C163.079 87.0206 164.476 86.2563 165.931 86.4061C167.784 86.5093 169.205 88.0979 169.108 89.9587C169.101 91.427 168.194 92.7393 166.827 93.261C165.46 93.7827 163.914 93.4063 162.937 92.3139C161.96 91.2214 161.753 89.638 162.416 88.3293Z" fill="#D1D3D4"/>
<path id="Shape_25" fill-rule="evenodd" clip-rule="evenodd" d="M146.504 53.2954C147.324 53.5816 148.185 53.7304 149.052 53.7359C151.027 53.6425 152.93 52.9652 154.523 51.7891C156.263 50.6593 157.028 49.5438 156.858 48.3785C156.685 47.6786 156.328 47.038 155.825 46.5241C155.391 46.1069 155.084 45.5747 154.94 44.9893C154.964 44.3257 155.18 43.6836 155.563 43.142C156.662 41.3462 156.771 39.1115 155.853 37.2162C154.82 35.2196 152.654 33.8909 149.908 33.5783C147.93 33.3819 145.977 34.1446 144.65 35.6317C143.44 37.0597 142.944 38.9645 143.306 40.8043C143.362 41.0885 143.433 41.3799 143.511 41.6783L143.519 41.7107C143.799 42.871 144.063 43.9661 143.362 44.7193C143.027 45.0176 142.644 45.2577 142.23 45.4299C141.607 45.6641 141.065 46.0766 140.673 46.6164C140.426 47.0717 140.341 47.5982 140.432 48.1085C140.687 49.5138 141.509 50.7507 142.704 51.5262L142.704 51.5262C142.938 51.6825 143.171 51.8388 143.412 51.9738C144.397 52.5147 145.433 52.9573 146.504 53.2954ZM146.731 52.6204C145.703 52.2957 144.71 51.8697 143.766 51.3485V51.3841C143.546 51.2551 143.334 51.1152 143.129 50.9649C142.097 50.301 141.379 49.2441 141.14 48.0375C141.072 47.6848 141.124 47.3191 141.289 47.0001C141.615 46.5825 142.051 46.265 142.548 46.0835C143.042 45.8712 143.495 45.5729 143.886 45.2025C144.855 44.1657 144.509 42.7528 144.205 41.51L144.204 41.5078C144.134 41.2235 144.063 40.9393 144.006 40.6693C143.688 39.0452 144.123 37.3639 145.188 36.1006C146.359 34.7825 148.087 34.1064 149.838 34.2817C152.343 34.573 154.31 35.7596 155.23 37.543C156.04 39.2487 155.923 41.2523 154.919 42.8506C154.472 43.5022 154.237 44.2766 154.247 45.0675C154.401 45.7924 154.763 46.4565 155.287 46.9788C155.704 47.3964 156.006 47.9154 156.164 48.4851C156.271 49.3449 155.634 50.2259 154.147 51.1993C152.06 52.528 149.717 53.6435 146.731 52.6204Z" fill="#D1D3D4"/>
<path id="Shape_26" fill-rule="evenodd" clip-rule="evenodd" d="M163.036 52.4287C164.712 53.1316 166.507 53.5054 168.323 53.53C169.379 53.5513 170.433 53.405 171.444 53.0966C173.586 52.4178 175.257 50.7216 175.909 48.5634C176.366 46.9095 175.922 45.1364 174.742 43.8953C172.59 41.5221 167.12 40.5771 164.289 41.5221C163.68 41.7392 163.084 41.9931 162.506 42.2824C161.623 42.7649 160.666 43.0962 159.675 43.2629C158.382 43.3155 157.092 43.1177 155.874 42.6803C154.176 42.1971 152.428 41.7068 150.786 42.4174C149.082 43.2592 148.121 45.1163 148.415 47.0003C148.655 48.5257 149.329 49.9493 150.354 51.1C151.562 52.6455 153.465 53.4741 155.414 53.3026C156.273 53.1528 157.103 52.8725 157.877 52.4713C159.313 51.494 161.177 51.4223 162.682 52.2866L163.036 52.4287ZM160.658 50.9721H160.489C159.481 51.0456 158.501 51.3365 157.615 51.8247C156.908 52.1933 156.149 52.4543 155.365 52.5992C153.242 52.8692 151.671 51.4766 150.921 50.631C149.975 49.5824 149.351 48.2823 149.123 46.8866C148.873 45.3209 149.652 43.771 151.055 43.0426C152.459 42.4191 154.011 42.8625 155.648 43.3299L155.662 43.3339C156.969 43.7995 158.353 44.007 159.738 43.945C160.798 43.7578 161.819 43.3952 162.76 42.8721C163.314 42.6004 163.883 42.3631 164.466 42.1616C167.056 41.2876 172.229 42.2042 174.168 44.3358C175.184 45.403 175.568 46.9265 175.18 48.3503C174.586 50.2724 173.088 51.7784 171.175 52.3789C168.558 53.101 165.772 52.8824 163.298 51.7608L162.958 51.6187C162.235 51.27 161.457 51.0512 160.658 50.9721Z" fill="#D1D3D4"/>
<path id="Shape_27" fill-rule="evenodd" clip-rule="evenodd" d="M164.806 47.1492C165.432 47.877 166.362 48.2688 167.318 48.2079L167.764 48.2221C169.625 48.1799 171.427 47.5593 172.923 46.4458C175.768 44.1366 174.855 41.8558 174.055 40.7047C171.798 37.4505 164.876 35.1555 161.147 37.3582C159.782 38.191 158.831 39.5638 158.528 41.1382C158.281 42.3401 158.568 43.5907 159.314 44.5629C159.983 45.3485 160.953 45.8131 161.982 45.8418C162.554 45.8917 163.112 46.0433 163.631 46.2895C164.064 46.5132 164.461 46.8033 164.806 47.1492ZM161.508 37.9337C162.509 37.3937 163.634 37.1289 164.77 37.1663C168.068 37.1663 171.96 38.8929 173.475 41.0813C174.6 42.7368 174.282 44.3924 172.477 45.8632C171.087 46.8649 169.431 47.4266 167.721 47.476C166.819 47.6592 165.889 47.3352 165.294 46.6305C164.46 45.722 163.309 45.1722 162.081 45.0958C161.233 45.0865 160.43 44.7142 159.873 44.0726C159.25 43.2675 159.014 42.2269 159.229 41.2305C159.494 39.859 160.321 38.6625 161.508 37.9337Z" fill="#D1D3D4"/>
<path id="Path_50" d="M59.317 45.6216C59.317 45.6216 61.6028 43.76 59.317 41.3584H55.6299C55.6299 41.3584 56.4225 44.4634 55.6299 45.6216H59.317Z" fill="#231F20"/>
<path id="Shape_28" fill-rule="evenodd" clip-rule="evenodd" d="M55.63 45.9768H59.317C59.3894 45.9714 59.4585 45.9441 59.5152 45.8987C60.1625 45.3376 60.5725 44.5499 60.6617 43.696C60.6722 42.7156 60.2654 41.7772 59.5435 41.1168C59.4744 41.0513 59.3838 41.0133 59.2887 41.0103H55.6017C55.4917 41.0096 55.3875 41.0593 55.3186 41.1453C55.2556 41.2363 55.2326 41.3493 55.2549 41.4579C55.4672 42.275 55.8847 44.5842 55.3115 45.4155C55.2443 45.5294 55.2443 45.6711 55.3115 45.785C55.3754 45.902 55.4971 45.9753 55.63 45.9768ZM59.1755 45.2663H56.182C56.3964 44.0892 56.3529 42.8793 56.0546 41.7208H59.1401C59.6629 42.2235 59.9571 42.9196 59.954 43.6463C59.8947 44.2621 59.6186 44.8365 59.1755 45.2663Z" fill="#231F20"/>
<path id="Path_51" d="M57.3143 44.2148C57.4229 43.3745 57.1258 42.5326 56.5146 41.9483C56.2442 41.5951 55.933 41.2755 55.5875 40.9962C54.9239 40.5629 54.1802 40.2681 53.4007 40.1293C51.681 39.7101 49.6712 40.243 47.9161 40.2785C46.0308 40.3144 44.1579 39.9664 42.4103 39.2554C41.8098 39.0518 41.2713 38.6971 40.8463 38.2251C40.4075 40.8043 40.4641 43.6464 41.9432 45.8135C43.1965 47.4494 44.929 48.6496 46.897 49.2454C49.5606 50.3242 52.5962 49.8818 54.8444 48.0872C55.8536 47.3221 56.6325 46.2918 57.0949 45.1101C57.1974 44.8197 57.2709 44.5198 57.3143 44.2148Z" fill="white"/>
<path id="Shape_29" fill-rule="evenodd" clip-rule="evenodd" d="M46.7485 49.5791C47.778 49.9584 48.8647 50.1579 49.9614 50.1688C51.8168 50.1557 53.6121 49.5064 55.0497 48.3286C56.1077 47.5203 56.9251 46.4367 57.4134 45.1951C57.5345 44.8832 57.6222 44.5593 57.6752 44.2288C57.8049 43.288 57.4818 42.3413 56.8048 41.678C56.5118 41.3091 56.1822 40.971 55.8211 40.6691C55.1173 40.2072 54.3277 39.893 53.4999 39.7454C52.2565 39.5285 50.9853 39.5285 49.742 39.7454C49.6604 39.7545 49.5794 39.7637 49.4989 39.7729C48.9513 39.8352 48.4292 39.8946 47.9232 39.8946C46.0806 39.9514 44.2451 39.6399 42.5235 38.978C41.983 38.7922 41.4968 38.4748 41.1082 38.0543C41.0243 37.9429 40.8822 37.8925 40.7472 37.9265C40.6126 37.9625 40.5107 38.0731 40.4854 38.2107C39.9263 41.4507 40.3085 44.0867 41.6319 46.0265C42.9249 47.7193 44.7146 48.9619 46.7485 49.5791ZM42.2192 45.6072C41.0799 43.9233 40.7119 41.7207 41.0799 38.9496C41.4365 39.2176 41.8237 39.4419 42.2334 39.6175C44.0332 40.3382 45.9575 40.6932 47.8949 40.662C48.4586 40.6488 49.0587 40.5869 49.6389 40.527C49.6852 40.5223 49.7314 40.5175 49.7774 40.5128C50.9483 40.3106 52.145 40.3106 53.3159 40.5128C54.0482 40.642 54.7479 40.9149 55.3752 41.3157C55.6963 41.5634 55.9904 41.8445 56.2528 42.1541C56.7897 42.6669 57.0523 43.4052 56.9605 44.1436C56.9097 44.4253 56.8314 44.7014 56.7269 44.9678C56.2919 46.0925 55.5575 47.0756 54.6039 47.8099C52.4456 49.5207 49.5405 49.9408 46.9891 48.9112C45.0926 48.3409 43.4235 47.1848 42.2192 45.6072Z" fill="#231F20"/>
<rect id="Rectangle_6" x="101" y="25.6914" width="30.0486" height="19.9232" fill="white"/>
<path id="Shape_30" fill-rule="evenodd" clip-rule="evenodd" d="M101 45.977H131.048C131.242 45.9732 131.399 45.8164 131.402 45.6217V25.6844C131.399 25.4897 131.242 25.3329 131.048 25.3291H101C100.804 25.3291 100.646 25.4882 100.646 25.6844V45.6217C100.646 45.8179 100.804 45.977 101 45.977ZM130.723 45.2665H101.325L101.354 26.0467H130.723V45.2665Z" fill="#D1D3D4"/>
<rect id="Rectangle_7" x="101" y="45.6216" width="30.0486" height="3.94342" fill="white"/>
<path id="Shape_31" fill-rule="evenodd" clip-rule="evenodd" d="M101 49.9205H131.048C131.244 49.9205 131.402 49.7615 131.402 49.5653V45.6219C131.402 45.4257 131.244 45.2666 131.048 45.2666H101C100.804 45.2666 100.646 45.4257 100.646 45.6219V49.5653C100.646 49.7615 100.804 49.9205 101 49.9205ZM130.723 49.21H101.325L101.354 45.9771H130.723V49.21Z" fill="#D1D3D4"/>
<path id="Path_52" d="M104.439 40.9819C104.301 40.9873 104.173 40.91 104.113 40.785C104.054 40.6601 104.073 40.5113 104.163 40.4064C104.503 39.98 112.656 29.9403 120.256 30.5443C123.285 30.7858 125.352 32.3774 125.791 34.8074C126.197 36.9466 125.12 39.0929 123.165 40.0369C121.042 41.0245 119.075 41.0103 117.702 39.9943C116.487 39.0207 115.923 37.4427 116.244 35.9158C116.302 34.5907 117.192 33.4488 118.459 33.0737C119.763 32.7285 121.152 33.1232 122.082 34.104C122.512 34.5796 122.605 35.272 122.316 35.8448C121.778 36.8893 121.141 37.4364 120.419 37.4648C119.266 37.4648 118.416 36.1503 118.381 36.0935C118.332 36.0126 118.317 35.9152 118.339 35.8231C118.362 35.7311 118.42 35.6519 118.501 35.6032C118.581 35.554 118.677 35.5392 118.767 35.5619C118.858 35.5846 118.935 35.6431 118.983 35.724C119.167 36.0153 119.754 36.7898 120.398 36.7543C121.042 36.7187 121.403 36.0437 121.686 35.5179C121.846 35.1957 121.783 34.8067 121.53 34.5516C120.782 33.7873 119.683 33.4838 118.65 33.7558C117.66 34.0626 116.974 34.9683 116.944 36.0082C116.667 37.2742 117.121 38.5893 118.119 39.4116C119.273 40.2714 121.007 40.2643 122.868 39.4116C124.535 38.5935 125.438 36.7453 125.062 34.9211C124.687 32.8393 122.861 31.4679 120.171 31.2548C112.974 30.6579 104.793 40.7474 104.715 40.854C104.647 40.9353 104.546 40.9821 104.439 40.9819Z" fill="#D1D3D4"/>
<path id="Shape_32" fill-rule="evenodd" clip-rule="evenodd" d="M104.595 64.1451H116.173C116.368 64.1451 116.527 63.9861 116.527 63.7899V54.553C116.527 54.3568 116.368 54.1978 116.173 54.1978H104.595C104.4 54.1978 104.241 54.3568 104.241 54.553V63.7899C104.241 63.9861 104.4 64.1451 104.595 64.1451ZM115.819 63.4346H104.949V54.9083H115.819V63.4346Z" fill="#D1D3D4"/>
<path id="Path_53" d="M110.384 56.2367C110.189 56.2367 110.03 56.0776 110.03 55.8814V53.6717C110.03 53.4755 110.189 53.3164 110.384 53.3164C110.58 53.3164 110.738 53.4755 110.738 53.6717V55.8672C110.742 55.9639 110.706 56.0579 110.639 56.1276C110.573 56.1974 110.48 56.2367 110.384 56.2367Z" fill="#D1D3D4"/>
</g>
</g>
</g>
<defs>
<linearGradient id="paint0_linear_1_10323" x1="0" y1="202" x2="202" y2="202" gradientUnits="userSpaceOnUse">
<stop stop-color="#5D0202" stop-opacity="0.01"/>
<stop offset="1" stop-color="#5D0202" stop-opacity="0.497569"/>
</linearGradient>
</defs>
</svg>
