<svg width="202" height="202" viewBox="0 0 202 202" fill="none" xmlns="http://www.w3.org/2000/svg">
<g id="Group 21">
<circle id="Oval Copy 3" opacity="0.202683" cx="101" cy="101" r="101" transform="matrix(0 -1 -1 0 202 202)" fill="url(#paint0_linear_1_10488)"/>
<g id="share(1) 2">
<g id="share(1)">
<path id="Path" d="M173.226 39.4853C172.23 39.4352 171.234 39.5701 170.288 39.883C168.888 40.5043 167.525 43.7789 166.555 48.9175C165.705 53.3679 165.34 57.897 165.466 62.4259C165.493 63.2395 165.909 63.9908 166.586 64.4453C170.942 67.5521 185.721 63.7556 187.289 63.3393C188.036 61.9101 194.844 48.5323 191.49 44.9346C188.54 41.747 178.646 39.4853 173.226 39.4853Z" fill="white"/>
<path id="Shape" fill-rule="evenodd" clip-rule="evenodd" d="M166.212 64.9362C167.569 65.9179 169.834 66.2721 172.391 66.2721C178.348 66.2721 185.909 64.3457 187.366 63.9744C187.482 63.945 187.559 63.9253 187.594 63.9171C187.68 63.893 187.752 63.8345 187.793 63.7556L187.798 63.7461C188.194 63.0004 195.828 48.6249 191.962 44.4935C188.079 40.3428 173.661 37.7331 170.033 39.2865C166.405 40.8399 164.457 55.4418 164.824 62.4507C164.863 63.4528 165.379 64.3761 166.212 64.9362ZM170.288 39.883C171.234 39.5701 172.23 39.4352 173.225 39.4853C178.645 39.4853 188.54 41.747 191.489 44.9346C194.844 48.5323 188.036 61.9102 187.289 63.3393C185.721 63.7556 170.941 67.5521 166.585 64.4453C165.909 63.9908 165.492 63.2396 165.465 62.4259C165.339 57.8971 165.705 53.3679 166.554 48.9175C167.525 43.7789 168.888 40.5043 170.288 39.883Z" fill="#231F20"/>
<path id="Path_2" d="M131.438 147.086C141.817 142.517 148.843 132.623 149.728 121.331L139.429 110.283L125.271 137.58" fill="white"/>
<path id="Path_3" d="M131.439 147.409C131.287 147.404 131.159 147.293 131.132 147.144C131.105 146.994 131.186 146.846 131.327 146.788C141.513 142.242 148.432 132.541 149.404 121.443L139.51 110.83L125.564 137.722C125.473 137.859 125.294 137.905 125.148 137.831C125.001 137.756 124.934 137.584 124.992 137.43L139.149 110.134C139.196 110.041 139.287 109.978 139.391 109.966C139.494 109.949 139.599 109.984 139.672 110.059L149.97 121.113C150.033 121.18 150.064 121.27 150.058 121.362C149.106 132.758 142.013 142.732 131.551 147.384C131.516 147.401 131.477 147.41 131.439 147.409Z" fill="#231F20"/>
<path id="Path_4" d="M163.362 163.962L194.514 163.359L194.084 124.189L148.34 125.836L141.974 163.962H163.362Z" fill="#231F20"/>
<path id="Shape_2" fill-rule="evenodd" clip-rule="evenodd" d="M141.974 164.273H163.362H163.368L194.52 163.652C194.602 163.65 194.681 163.616 194.738 163.556C194.795 163.497 194.827 163.417 194.825 163.335L194.395 124.189C194.396 124.104 194.36 124.022 194.296 123.965C194.234 123.91 194.155 123.879 194.072 123.878L148.327 125.525C148.179 125.53 148.056 125.64 148.035 125.786L141.669 163.913C141.651 164.002 141.676 164.094 141.737 164.161C141.795 164.232 141.882 164.273 141.974 164.273ZM163.362 163.652H142.341L148.601 126.134L193.779 124.506L194.203 163.03L163.362 163.652Z" fill="#231F20"/>
<path id="Path_5" d="M200.519 80.7315C197.731 76.9474 191.06 74.9529 186.567 74.2383C182.242 73.5548 177.911 74.2383 173.568 73.8655C169.59 73.6331 165.601 74.023 161.744 75.0212C147.251 79.0228 133.778 99.975 133.778 99.975L148.552 100.752C148.552 100.752 146.405 116.18 140.244 149.988C165.907 150.902 195.777 153.449 195.777 153.449C195.777 153.449 195.908 146.372 196.231 139.406C198.546 137.25 198.465 133.814 198.889 131.82C199.436 129.253 198.329 101.373 198.329 101.373L201.695 100.13C201.695 100.13 201.739 82.3595 200.519 80.7315Z" fill="#E7816B"/>
<path id="Path_6" d="M166 80.3399L154.743 154.275L168.185 155.624L183.474 80.1846L166 80.3399Z" fill="#231F20"/>
<path id="Shape_3" fill-rule="evenodd" clip-rule="evenodd" d="M168.153 155.934H168.185C168.334 155.934 168.463 155.827 168.489 155.68L183.773 80.2465C183.791 80.1536 183.766 80.0576 183.705 79.9855C183.646 79.9122 183.556 79.8707 183.462 79.8737L165.994 80.029C165.842 80.0301 165.713 80.1404 165.689 80.29L154.432 154.232C154.416 154.315 154.437 154.401 154.488 154.468C154.542 154.534 154.621 154.576 154.706 154.586L168.153 155.934ZM167.954 155.288L155.116 154.002L166.287 80.6442L183.088 80.495L167.954 155.288Z" fill="#231F20"/>
<path id="Path_7" d="M167.998 71.069L166.063 80.3397C166.063 80.3397 168.122 86.4974 174.364 85.845C178.099 85.4232 181.445 83.344 183.474 80.1844L185.69 63.1467C185.69 63.1467 181.527 60.158 184.153 50.6201C178.923 52.0777 173.397 52.1034 168.154 50.6947C168.154 50.6947 163.99 60.8663 164.096 65.6073C164.202 70.3483 167.998 71.069 167.998 71.069Z" fill="white"/>
<path id="Shape_4" fill-rule="evenodd" clip-rule="evenodd" d="M165.762 80.4488C165.86 80.718 167.871 86.2177 173.462 86.2177C173.782 86.218 174.102 86.1993 174.42 86.1618C178.257 85.7446 181.693 83.6034 183.755 80.3459C183.777 80.31 183.792 80.2698 183.798 80.2278L186.014 63.1901C186.032 63.072 185.982 62.9536 185.883 62.8857C185.846 62.8608 181.931 59.9218 184.464 50.7008C184.496 50.5872 184.463 50.4651 184.377 50.3839C184.29 50.3037 184.166 50.2774 184.053 50.3156C178.882 51.7393 173.424 51.7629 168.241 50.3839C168.084 50.3442 167.922 50.4265 167.861 50.5765C167.687 50.9928 163.68 60.8662 163.779 65.6507C163.891 69.789 166.667 71.0068 167.625 71.3051L165.758 80.2713C165.742 80.3261 165.742 80.3842 165.758 80.4391C165.759 80.4403 165.76 80.4435 165.762 80.4488ZM174.333 85.528C168.726 86.1059 166.667 81.048 166.399 80.3148L168.309 71.1622C168.327 71.076 168.309 70.9862 168.26 70.9136C168.212 70.8436 168.138 70.7963 168.054 70.7831L168.049 70.782C167.838 70.7388 164.506 70.0556 164.414 65.6569C164.329 61.5207 167.573 53.1099 168.301 51.2245C168.317 51.181 168.333 51.1411 168.347 51.1047C173.384 52.3699 178.656 52.3699 183.692 51.1047C181.583 59.3998 184.601 62.6806 185.348 63.302L183.164 80.0787C181.17 83.1081 177.938 85.1028 174.333 85.528Z" fill="#231F20"/>
<path id="Path_8" d="M182.187 62.3761C182.504 61.5731 183.074 60.8948 183.811 60.4437C184.514 60.0575 185.278 59.7948 186.07 59.667C186.495 59.5505 186.942 59.5293 187.376 59.6049C187.672 59.6975 187.948 59.8427 188.192 60.0336C188.796 60.4436 189.237 61.0529 189.436 61.7548C189.525 62.3388 189.471 62.9354 189.281 63.4946C189.125 64.1149 188.884 64.7108 188.565 65.2655C187.907 66.376 186.83 67.176 185.575 67.4856C184.321 67.7953 182.994 67.5886 181.894 66.9121" fill="white"/>
<path id="Path_9" d="M184.439 67.9374C183.487 67.939 182.552 67.6789 181.738 67.1856C181.588 67.0921 181.541 66.8956 181.633 66.7444C181.676 66.6711 181.748 66.6185 181.831 66.5986C181.914 66.5788 182.002 66.5932 182.074 66.6388C183.106 67.2576 184.338 67.4494 185.509 67.1732C186.681 66.8812 187.688 66.137 188.31 65.104C188.613 64.5723 188.841 64.0015 188.988 63.4077C189.163 62.9011 189.215 62.3599 189.137 61.8295C188.953 61.2024 188.554 60.6595 188.011 60.2947C187.8 60.1251 187.56 59.9965 187.302 59.9157C186.916 59.8541 186.521 59.8753 186.144 59.9778C185.378 60.1005 184.637 60.3504 183.954 60.7172C183.276 61.1322 182.752 61.7559 182.46 62.4943C182.395 62.6659 182.203 62.7522 182.031 62.687C181.859 62.6217 181.773 62.4298 181.838 62.2582C182.184 61.3925 182.799 60.6607 183.593 60.1704C184.345 59.7651 185.162 59.4939 186.007 59.3689C186.48 59.2389 186.976 59.2198 187.457 59.313C187.795 59.4128 188.11 59.5774 188.384 59.7976C189.058 60.2471 189.547 60.9246 189.76 61.7052C189.857 62.3301 189.803 62.969 189.604 63.5693C189.44 64.2214 189.189 64.8485 188.857 65.4334C188.148 66.6125 187 67.4636 185.665 67.8007C185.263 67.8955 184.852 67.9414 184.439 67.9374Z" fill="#231F20"/>
<path id="Path_10" d="M167.251 75.7046C169.474 76.2627 171.83 75.8321 173.711 74.5241C176.723 72.3182 176.692 70.7959 176.692 70.7959C176.692 70.7959 172.08 72.573 168.222 71.2495L167.251 75.7046Z" fill="#231F20"/>
<path id="Shape_5" fill-rule="evenodd" clip-rule="evenodd" d="M167.164 76.0025C167.837 76.1772 168.529 76.2629 169.224 76.2572C170.899 76.2672 172.533 75.7401 173.885 74.7536C176.996 72.4794 176.996 70.839 176.996 70.7706C176.997 70.6697 176.945 70.5758 176.859 70.5221C176.772 70.4757 176.667 70.4757 176.579 70.5221C176.536 70.5407 172.024 72.2122 168.322 70.9695C168.243 70.9325 168.152 70.9325 168.073 70.9695C167.995 71.0122 167.94 71.0874 167.923 71.1745L166.953 75.6421C166.916 75.7992 167.009 75.9572 167.164 76.0025ZM173.53 74.2751C171.808 75.4688 169.67 75.9025 167.618 75.4743L168.452 71.6468C171.539 72.5664 174.943 71.6903 176.25 71.2739C176.019 71.858 175.366 72.9268 173.53 74.2751Z" fill="#231F20"/>
<path id="Path_11" d="M173.568 57.2002C173.568 57.2002 169.616 61.3571 170.226 62.3016C170.836 63.246 173.02 63.0969 173.02 63.0969" fill="white"/>
<path id="Path_12" d="M172.559 63.3894C171.819 63.3894 170.481 63.2713 169.964 62.4697C169.292 61.4383 172.099 58.288 173.337 56.9894C173.396 56.9305 173.475 56.8975 173.558 56.8975C173.641 56.8975 173.721 56.9305 173.779 56.9894C173.837 57.0466 173.87 57.125 173.87 57.2068C173.87 57.2887 173.837 57.367 173.779 57.4243C171.763 59.5494 170.219 61.7738 170.475 62.1466C170.885 62.768 172.466 62.8115 172.964 62.768C173.134 62.7536 173.283 62.8783 173.3 63.0476C173.307 63.1301 173.28 63.2119 173.227 63.2748C173.173 63.3378 173.096 63.3768 173.014 63.3831C172.989 63.3769 172.802 63.3894 172.559 63.3894Z" fill="#231F20"/>
<ellipse id="Oval" cx="178.918" cy="57.9748" rx="1.11247" ry="0.790145" transform="rotate(-68.08 178.918 57.9748)" fill="#231F20"/>
<ellipse id="Oval_2" cx="170.72" cy="56.6355" rx="1.11247" ry="0.790145" transform="rotate(-68.08 170.72 56.6355)" fill="#231F20"/>
<path id="Path_13" d="M173.014 68.6332C172.695 68.6327 172.377 68.593 172.068 68.5152C167.761 67.4775 167.861 62.4569 167.861 62.4072C167.871 62.2371 168.014 62.1053 168.185 62.109C168.267 62.1106 168.345 62.1451 168.401 62.2047C168.457 62.2643 168.487 62.344 168.483 62.4259C168.483 62.6123 168.402 66.9928 172.217 67.9125C176.032 68.8321 177.917 62.8111 177.936 62.749C177.961 62.6343 178.05 62.5439 178.164 62.5152C178.278 62.4866 178.398 62.5246 178.475 62.6134C178.552 62.7023 178.572 62.8269 178.527 62.9354C178.446 63.1839 176.698 68.6332 173.014 68.6332Z" fill="#231F20"/>
<path id="Path_14" d="M36.9995 82.9805L60.2607 109.009L92.8066 120.374L88.6497 128.961C88.6497 128.961 67.5229 125.773 59.2029 124.841C50.8828 123.909 40.3661 111.433 40.3661 111.433L36.9995 82.9805Z" fill="white"/>
<path id="Shape_6" fill-rule="evenodd" clip-rule="evenodd" d="M88.6063 129.265H88.6499C88.7708 129.266 88.8806 129.195 88.9299 129.085L93.0931 120.473C93.1304 120.392 93.1304 120.299 93.0931 120.218C93.06 120.138 92.9945 120.075 92.9126 120.045L60.4415 108.705L37.23 82.7381C37.139 82.6371 36.9928 82.6069 36.8691 82.6635C36.7493 82.722 36.6776 82.8478 36.6886 82.9804L40.0552 111.47C40.0618 111.53 40.088 111.587 40.1299 111.631C40.5593 112.147 50.8208 124.208 59.1658 125.146C65.3472 125.842 78.7595 127.821 85.1228 128.759C87.2218 129.069 88.5539 129.265 88.6063 129.265ZM59.2342 124.525C51.4556 123.648 41.53 112.302 40.665 111.296L37.4229 83.9125L60.0432 109.196C60.0784 109.235 60.1234 109.265 60.1739 109.283L92.3899 120.535L88.4819 128.613C86.1607 128.253 67.0128 125.401 59.2342 124.525Z" fill="#231F20"/>
<path id="Path_15" d="M48.2944 70.0748C47.9708 67.8938 47.0934 65.8371 46.4275 63.7431C44.7473 58.6666 44.5047 53.4286 42.7436 48.3707C40.4847 41.8651 36.1473 37.1303 28.5616 37.3975C25.4381 37.3996 22.6225 39.2771 21.4239 42.1571C17.8333 40.1812 13.0478 44.2014 12.8798 47.8798C12.6309 53.3043 12.9794 57.9334 10.6147 63.072C8.82248 66.9742 6.04707 70.6278 5.81682 74.9152C5.58657 79.2025 8.01973 83.2103 11.5046 85.5777C14.9894 87.9451 19.3828 88.7342 23.5832 88.4235C27.7837 88.1128 31.8473 86.7707 35.749 85.1676C37.6692 84.4259 39.5117 83.4977 41.2501 82.3963C45.2141 79.7493 49.0536 75.1202 48.2944 70.0748Z" fill="white"/>
<path id="Shape_7" fill-rule="evenodd" clip-rule="evenodd" d="M11.3303 85.8326C14.4631 87.847 18.128 88.8793 21.8532 88.7965C22.432 88.7965 23.0169 88.7779 23.5894 88.7468C28.2193 88.4051 32.5691 86.8144 35.8486 85.466C37.7941 84.7199 39.6599 83.7811 41.4181 82.6637C45.4069 79.9856 49.3896 75.2944 48.618 70.0439C48.3164 68.3927 47.858 66.774 47.2489 65.2097C47.0622 64.694 46.8818 64.172 46.7075 63.6563C45.9578 61.212 45.3695 58.7212 44.9464 56.2C44.4964 53.5167 43.8538 50.8691 43.0236 48.2777C40.3913 40.7157 35.3756 36.8695 28.5304 37.0932C25.4131 37.0991 22.5834 38.9132 21.2807 41.741C19.7066 41.0837 17.9101 41.2369 16.4704 42.1511C14.2675 43.3814 12.6682 45.7301 12.5686 47.8676C12.5641 47.9661 12.5594 48.0648 12.5548 48.1636C12.5152 49.0052 12.4753 49.8525 12.4753 50.6699C12.3571 55.0194 12.2513 58.7476 10.3346 62.9418C9.84748 63.9997 9.27692 65.0577 8.72206 66.0865L8.68555 66.1542C7.2045 68.9006 5.67366 71.7402 5.50565 74.9029C5.28162 78.9977 7.59654 83.2788 11.3303 85.8326ZM16.7691 42.6854C17.5562 42.2207 18.4499 41.966 19.3641 41.946L19.3703 41.9709C20.0375 41.9654 20.6951 42.1301 21.2807 42.4493C21.3596 42.4863 21.4508 42.4863 21.5296 42.4493C21.6092 42.422 21.6743 42.3638 21.7101 42.2878C22.8576 39.5222 25.5573 37.7161 28.5553 37.7084C35.2263 37.4722 39.8686 41.0948 42.4573 48.4765C43.2718 51.041 43.8958 53.6619 44.3242 56.3181C44.7553 58.8603 45.3519 61.3718 46.1101 63.8365C46.2467 64.2505 46.3909 64.6606 46.5338 65.0669C46.5732 65.179 46.6125 65.2908 46.6515 65.4023C47.2474 66.9286 47.6974 68.5076 47.9957 70.1185C48.73 75.0831 44.8967 79.5818 41.0696 82.1355C39.3499 83.2284 37.526 84.1483 35.6245 84.882C32.3886 86.2117 28.0699 87.7961 23.5521 88.113C19.0343 88.4299 14.8213 87.4544 11.6725 85.3231C8.08815 82.8874 5.91013 78.8113 6.11549 74.934C6.28322 71.9194 7.77803 69.1402 9.21943 66.4602L9.22695 66.4462C9.79945 65.3899 10.3906 64.2963 10.8947 63.2027C12.8613 58.916 12.9725 54.9381 13.0903 50.721L13.0914 50.6823C13.1163 49.7565 13.1412 48.8431 13.1847 47.8924C13.2718 45.96 14.7467 43.8163 16.7691 42.6854Z" fill="#231F20"/>
<path id="Path_16" d="M48.4124 86.883C48.151 85.8515 47.871 84.8325 47.5599 83.8197C46.7384 81.1043 45.7614 77.1649 43.8261 75.0088C40.6711 71.5167 33.5708 71.4049 29.2583 71.38C22.5811 71.3428 15.7546 72.9086 10.2971 76.7424C1.89614 82.6453 0.340417 91.2138 1.30497 100.77C2.41265 111.458 3.79413 122.12 5.29385 132.764C5.4432 133.858 7.24162 150.119 8.0506 150.125C8.10661 150.125 63.4345 150.168 61.6672 151.473C59.178 142.843 57.3112 134.075 55.3074 125.376C54.8842 123.512 54.1313 121.822 53.6708 120.008C53.0049 117.385 53.3098 114.509 53.0485 111.824C52.5071 105.611 51.1816 99.4965 49.8872 93.4072C49.433 91.22 48.96 89.0391 48.4124 86.883Z" fill="#E7816B"/>
<path id="Path_17" d="M64.0944 164.168L57.7532 136.38L6.53866 140.593L5.88525 164.168H64.0944Z" fill="#231F20"/>
<path id="Shape_8" fill-rule="evenodd" clip-rule="evenodd" d="M5.88489 164.478H64.094C64.1774 164.468 64.2535 164.426 64.3056 164.36C64.3632 164.286 64.3859 164.191 64.3678 164.099L58.0267 136.312C57.9863 136.164 57.8498 136.064 57.6968 136.07L6.48229 140.282C6.32392 140.298 6.20152 140.428 6.19604 140.587L5.57375 164.161C5.57295 164.244 5.60414 164.324 5.66087 164.385C5.72023 164.444 5.8008 164.478 5.88489 164.478ZM63.7144 163.857H6.22093L6.82455 140.879L57.4915 136.716L63.7144 163.857Z" fill="#231F20"/>
<path id="Path_18" d="M33.7136 94.7862C33.8842 94.8559 34.0649 94.8979 34.2488 94.9105C35.4125 94.9974 36.3273 93.9163 36.8064 92.8538C37.8768 90.4864 37.8768 87.7897 37.6901 85.2048C37.6544 83.6782 37.327 82.1723 36.7255 80.7683C36.1533 79.6789 35.3855 78.7037 34.4604 77.8914C32.7989 76.3567 30.7827 75.0705 28.5362 74.7846C26.2897 74.4988 23.004 75.7167 22.3133 78.1772C21.5914 80.8367 24.3917 83.5147 25.7483 85.472C27.7067 88.3009 29.8477 90.9992 32.1579 93.5497C32.5752 94.075 33.1074 94.498 33.7136 94.7862Z" fill="#231F20"/>
<path id="Shape_9" fill-rule="evenodd" clip-rule="evenodd" d="M34.2241 95.2213H34.3859C35.9478 95.2213 36.8439 93.5436 37.0866 92.9906C38.213 90.5114 38.1819 87.6842 38.0014 85.1987C37.9611 83.6313 37.6232 82.0858 37.0057 80.6442C36.4196 79.5196 35.6282 78.5144 34.6721 77.6803C32.6621 75.8162 30.6086 74.7475 28.5737 74.5114C25.9725 74.2007 22.7241 75.5863 22.0334 78.1339C21.4111 80.4081 23.166 82.6512 24.5723 84.4469C24.9208 84.8943 25.2444 85.3106 25.5058 85.6896C27.4763 88.5161 29.6255 91.2142 31.9403 93.7673C32.3876 94.3242 32.9557 94.7725 33.6018 95.0783C33.8022 95.1525 34.0114 95.2005 34.2241 95.2213ZM34.2739 94.5937C34.1199 94.5822 33.9687 94.5466 33.8258 94.4881C33.2676 94.2096 32.7819 93.8055 32.407 93.3075C30.1063 90.7707 27.9736 88.0869 26.0223 85.2733C25.7588 84.9225 25.4512 84.5277 25.1254 84.1095C25.105 84.0833 25.0845 84.057 25.064 84.0306C23.7385 82.3467 22.0956 80.2403 22.6308 78.2644C23.2282 76.0585 26.2028 74.8283 28.499 75.0954C30.4032 75.3191 32.3385 76.3319 34.249 78.1028C35.1487 78.8857 35.8938 79.8299 36.4457 80.8865C37.0267 82.2652 37.3434 83.7406 37.3791 85.236C37.5533 87.622 37.5845 90.3747 36.5203 92.7296C36.091 93.6741 35.2509 94.6807 34.2739 94.5937Z" fill="#231F20"/>
<rect id="Rectangle" x="60.5845" y="45.2705" width="87.4817" height="93.2536" fill="white"/>
<path id="Shape_10" fill-rule="evenodd" clip-rule="evenodd" d="M60.5846 138.828H148.06C148.232 138.828 148.371 138.689 148.371 138.518V45.2702C148.371 45.0986 148.232 44.9595 148.06 44.9595H60.5846C60.4127 44.9595 60.2734 45.0986 60.2734 45.2702V138.518C60.2734 138.689 60.4127 138.828 60.5846 138.828ZM147.749 138.207H60.8957V45.5808H147.749V138.207Z" fill="#231F20"/>
<rect id="Rectangle_2" x="66.2285" y="52.4409" width="76.1809" height="68.4551" fill="white"/>
<path id="Shape_11" fill-rule="evenodd" clip-rule="evenodd" d="M66.2286 121.206H142.416C142.5 121.206 142.582 121.172 142.64 121.111C142.699 121.05 142.73 120.968 142.727 120.883V52.4406C142.727 52.269 142.588 52.1299 142.416 52.1299H66.2286C66.0568 52.1299 65.9175 52.269 65.9175 52.4406V120.896C65.9175 121.067 66.0568 121.206 66.2286 121.206ZM142.105 120.585H66.5398V52.7512H142.105V120.585Z" fill="#D1D3D4"/>
<path id="Path_19" d="M133.89 76.3506C132.795 77.5561 131.75 78.8361 130.605 79.9607C127.611 83.0054 124.575 86.0066 121.557 89.0264C121.451 89.132 121.37 89.2749 121.245 89.3308C120.704 89.567 120.001 90.0889 119.64 89.9087C119.146 89.527 118.845 88.9474 118.819 88.3242C118.731 85.9941 118.787 83.664 118.787 81.1724C117.804 81.1724 116.877 81.1351 115.95 81.1724C112.446 81.3402 109.073 82.0361 106.024 83.8567C102.256 85.9438 99.873 89.8639 99.7578 94.165C99.7899 95.3236 99.9761 96.4729 100.312 97.5825C100.442 98.1666 100.772 98.8252 100.038 99.0551C99.4853 99.0573 98.9705 98.7756 98.675 98.3095C97.7279 96.4315 96.9692 94.4647 96.4098 92.4376C94.3127 82.9681 99.5213 74.2877 108.937 71.3114C111.65 70.445 114.482 70.0028 117.331 70.0004H118.781C118.781 68.1798 118.781 66.4462 118.781 64.7126C118.763 63.8808 118.819 63.0489 118.949 62.2271C119.136 61.2827 119.733 61.059 120.573 61.525C120.913 61.7377 121.223 61.9947 121.494 62.2893C125.29 66.0796 129.082 69.8761 132.87 73.6788C133.243 74.1144 133.582 74.5776 133.884 75.0644L133.89 76.3506Z" fill="#E7816B"/>
<path id="Path_20" d="M86.5154 110.507C84.3848 110.102 82.446 109.01 80.9957 107.4C79.6047 105.796 78.8421 103.743 78.8488 101.621C78.8488 93.376 78.799 85.1367 78.8488 76.8913C78.8371 74.5466 79.7652 72.2946 81.4263 70.6372C83.0873 68.9798 85.3433 68.0547 87.6915 68.068C89.2286 68.0307 90.7594 68.0307 92.2965 68.068C93.5411 68.068 94.3252 68.8074 94.3127 69.8886C94.3003 70.9697 93.5349 71.5849 92.3214 71.5973C90.8217 71.5973 89.3282 71.5973 87.8284 71.5973C86.3848 71.5514 84.985 72.0969 83.9543 73.1074C82.9236 74.1178 82.3515 75.5051 82.371 76.9472C82.3461 85.232 82.3461 93.5168 82.371 101.802C82.3709 103.207 82.934 104.553 83.9348 105.541C84.9357 106.528 86.2908 107.075 87.6978 107.058C95.8809 107.058 109.988 107.058 118.19 107.058C119.653 107.123 121.077 106.576 122.12 105.549C123.162 104.522 123.73 103.108 123.685 101.646C123.728 99.0552 123.685 96.4641 123.685 93.873C123.685 92.6303 124.22 91.9717 125.234 91.835C126.081 91.7169 127.101 92.301 127.101 93.1461C127.101 96.607 127.356 100.105 126.939 103.517C126.479 107.245 123.579 109.73 119.839 110.432C119.7 110.472 119.565 110.524 119.435 110.588L86.5154 110.507Z" fill="#E7816B"/>
<path id="Path_21" d="M141.849 127.799H77.3365C77.1647 127.799 77.0254 127.66 77.0254 127.488C77.0254 127.317 77.1647 127.178 77.3365 127.178H141.849C142.021 127.178 142.161 127.317 142.161 127.488C142.161 127.66 142.021 127.799 141.849 127.799Z" fill="#D1D3D4"/>
<path id="Path_22" d="M125.813 132.639H77.3365C77.1647 132.639 77.0254 132.5 77.0254 132.329C77.0254 132.157 77.1647 132.018 77.3365 132.018H125.813C125.985 132.018 126.124 132.157 126.124 132.329C126.121 132.499 125.983 132.636 125.813 132.639Z" fill="#D1D3D4"/>
<ellipse id="Oval_3" cx="69.8193" cy="128.744" rx="3.5844" ry="3.57903" fill="white"/>
<path id="Shape_12" fill-rule="evenodd" clip-rule="evenodd" d="M66.21 130.239C66.8159 131.695 68.2406 132.642 69.8192 132.64C71.9717 132.636 73.7148 130.893 73.7148 128.744C73.7148 127.167 72.7635 125.746 71.3047 125.144C69.846 124.541 68.1673 124.876 67.0518 125.991C65.9364 127.107 65.6042 128.783 66.21 130.239ZM66.7844 127.494C67.2936 126.27 68.4917 125.473 69.8192 125.475C71.6256 125.479 73.0891 126.94 73.0925 128.744C73.095 130.069 72.2969 131.266 71.0709 131.774C69.8449 132.282 68.4328 132.003 67.4941 131.065C66.5554 130.128 66.2752 128.718 66.7844 127.494Z" fill="#D1D3D4"/>
<path id="Path_23" d="M40.2043 51.2169C40.2043 51.2169 43.3157 58.4557 42.4134 64.166C41.9687 67.419 39.6389 70.1012 36.4768 71.001L37.0991 80.9738C37.0991 80.9738 37.4787 86.0689 31.1686 85.6899C27.4539 85.4566 24.1226 83.326 22.357 80.0542L20.4839 61.78C20.4839 61.78 27.3291 57.2441 26.265 50.7012C26.265 50.7012 34.9584 54.2243 40.2043 51.2169Z" fill="white"/>
<path id="Shape_13" fill-rule="evenodd" clip-rule="evenodd" d="M31.1812 86.0313H31.8533C33.7077 86.0313 35.139 85.5342 36.1097 84.5711C37.0086 83.6006 37.4833 82.3127 37.429 80.992L36.8067 71.2678C39.9612 70.2471 42.2562 67.5189 42.7185 64.2402C43.6519 58.505 40.6089 51.4153 40.4782 51.1171C40.4445 51.0346 40.3762 50.971 40.2915 50.9431C40.2099 50.9089 40.118 50.9089 40.0364 50.9431C35.3627 53.6337 27.6876 50.8807 26.5307 50.4657C26.4399 50.4331 26.3892 50.415 26.3833 50.415C26.2793 50.3723 26.1604 50.3889 26.0722 50.4584C25.9838 50.5277 25.9407 50.64 25.9602 50.7505C26.9558 57.0138 20.3782 61.4751 20.3098 61.5186C20.2142 61.5838 20.1618 61.6957 20.1729 61.8107L22.0771 80.1159C22.0808 80.1528 22.0913 80.1886 22.1082 80.2216C23.9393 83.5792 27.3612 85.7704 31.1812 86.0313ZM31.2185 85.3913C27.6397 85.1529 24.4278 83.114 22.6931 79.9792L20.8449 61.9536C21.8406 61.2328 27.2483 57.0262 26.6696 51.1979C28.5676 51.8938 35.4252 54.081 40.0675 51.6763C40.6462 53.1241 42.93 59.2507 42.1397 64.1408C41.7307 67.28 39.4893 69.8747 36.4395 70.7396C36.29 70.773 36.187 70.91 36.1968 71.0627L36.8191 81.0045C36.8561 82.1504 36.443 83.2653 35.6679 84.1113C34.7158 85.0806 33.2161 85.5093 31.2185 85.3913Z" fill="#231F20"/>
<path id="Path_24" d="M23.8569 60.2638C23.8569 60.2638 20.2912 53.5407 17.13 58.1263C13.9687 62.712 19.3204 67.1733 22.3759 66.5582" fill="white"/>
<path id="Path_25" d="M21.7661 66.937C20.0174 66.937 17.9265 65.6943 16.7877 63.9359C15.5213 62.1297 15.5691 59.7133 16.906 57.9584C17.7461 56.7157 18.7044 56.1565 19.7561 56.2248C22.1643 56.3677 24.1121 59.953 24.1619 60.1207C24.2178 60.2678 24.1548 60.4335 24.0152 60.5064C23.8755 60.5793 23.7033 60.5364 23.6143 60.4066C23.6143 60.4066 21.7474 56.9704 19.6689 56.8462C18.8392 56.7965 18.0738 57.2853 17.3727 58.3126C16.1911 59.8622 16.1459 61.996 17.2607 63.5941C18.4368 65.3836 20.7019 66.5829 22.3012 66.2598C22.4709 66.2293 22.6339 66.3396 22.6684 66.5083C22.6848 66.5883 22.6683 66.6715 22.6227 66.7393C22.5771 66.8071 22.5061 66.8537 22.4257 66.8687C22.2085 66.9128 21.9876 66.9357 21.7661 66.937Z" fill="#231F20"/>
<path id="Path_26" d="M37.5909 64.1224C37.0835 64.1219 36.5772 64.0741 36.0787 63.9795C35.9975 63.9661 35.9254 63.9199 35.8794 63.8516C35.8335 63.7834 35.8178 63.6993 35.836 63.6191C35.8511 63.5372 35.8984 63.4648 35.9675 63.418C36.0365 63.3713 36.1214 63.3542 36.2032 63.3706C36.2032 63.3706 38.2194 63.762 39.1715 63.1842C39.3084 62.4075 37.3918 59.804 35.9978 58.2133C35.9432 58.1519 35.9157 58.0712 35.9215 57.9893C35.9274 57.9074 35.9661 57.8313 36.029 57.7783C36.1521 57.6592 36.3477 57.6592 36.4708 57.7783C37.0931 58.4618 40.0116 61.9539 39.8063 63.2339C39.7776 63.4344 39.6614 63.6119 39.4889 63.7185C38.902 64.0151 38.2479 64.1543 37.5909 64.1224Z" fill="#231F20"/>
<path id="Path_27" d="M36.4708 71.0132C36.4708 71.0132 31.1813 72.0322 28.0698 71.4543C28.0698 71.4543 31.9218 79.0846 36.9935 78.7118L36.4708 71.0132Z" fill="#231F20"/>
<path id="Shape_14" fill-rule="evenodd" clip-rule="evenodd" d="M27.796 71.5848C27.9205 71.9017 31.6169 79.0411 36.6325 79.0411C36.7653 79.0411 36.896 79.0453 37.0246 79.0536C37.1941 79.0403 37.3215 78.8937 37.3108 78.7242L36.7881 71.0256C36.7808 70.9381 36.7381 70.8573 36.6699 70.8019C36.5987 70.7485 36.5089 70.7261 36.421 70.7398C36.3649 70.7522 31.1501 71.7402 28.132 71.1747C28.014 71.1313 27.8814 71.1632 27.796 71.2555C27.7314 71.3558 27.7314 71.4845 27.796 71.5848ZM36.6388 78.4198C32.737 78.4198 29.6255 73.511 28.6485 71.852C31.3431 72.1689 35.0457 71.5848 36.1596 71.386L36.6388 78.4198Z" fill="#231F20"/>
<ellipse id="Oval_4" cx="32.9843" cy="57.0292" rx="0.78407" ry="1.37323" transform="rotate(-6.85 32.9843 57.0292)" fill="#231F20"/>
<ellipse id="Oval_5" cx="39.8075" cy="56.7836" rx="0.78407" ry="1.37323" transform="rotate(-6.85 39.8075 56.7836)" fill="#231F20"/>
<path id="Path_28" d="M34.4422 67.1109C33.9894 67.1077 33.5422 67.0103 33.1291 66.8251C31.6108 66.1664 30.64 64.3396 30.2355 61.3509C30.2114 61.1793 30.3312 61.0207 30.5031 60.9967C30.6749 60.9727 30.8337 61.0923 30.8578 61.2639C31.2312 64.0041 32.1024 65.6818 33.3843 66.2348C34.9587 66.9307 36.7322 65.7191 36.7509 65.7066C36.8418 65.6363 36.9642 65.6217 37.0691 65.6688C37.174 65.7159 37.2443 65.8169 37.252 65.9315C37.2596 66.0461 37.2033 66.1556 37.1056 66.2161C36.3177 66.7544 35.3957 67.0642 34.4422 67.1109Z" fill="#231F20"/>
<path id="Path_29" d="M118.047 138.841C117.944 138.153 117.877 137.46 117.848 136.765C117.801 135.322 118.026 133.882 118.513 132.522C118.662 131.916 118.995 131.371 119.465 130.962C119.969 130.567 120.69 130.618 121.133 131.08C121.376 131.578 121.398 132.155 121.195 132.671C120.871 134.114 120.797 135.602 120.978 137.07C121.214 135.094 121.475 133.043 122.552 131.378C122.776 130.988 123.095 130.661 123.479 130.428C123.872 130.193 124.362 130.193 124.755 130.428C125.309 130.831 125.265 131.67 125.197 132.329C125.021 134.068 125.049 135.822 125.278 137.555C125.153 136.031 125.265 134.496 125.607 133.006C125.831 132.031 126.273 130.956 127.225 130.645C127.425 130.575 127.641 130.562 127.848 130.608C128.283 130.755 128.601 131.13 128.675 131.583C128.747 132.028 128.747 132.481 128.675 132.925C128.496 134.675 128.55 136.441 128.837 138.176C128.613 136.654 128.67 135.104 129.005 133.603C129.093 133.002 129.333 132.433 129.702 131.95C130.088 131.459 130.743 131.267 131.333 131.471C131.754 131.695 132.046 132.101 132.123 132.571C132.196 133.036 132.212 133.507 132.173 133.976C132.13 135.747 132.459 137.508 133.137 139.145C133.697 140.506 134.425 142.016 134.295 143.538C134.061 145.152 132.956 146.507 131.42 147.061C129.901 147.586 128.264 147.664 126.703 147.285C121.556 146.266 117.306 143.818 115.501 138.903" fill="white"/>
<path id="Path_30" d="M128.881 147.857C128.134 147.853 127.39 147.776 126.659 147.627C120.735 146.453 116.883 143.563 115.203 139.04C115.141 138.868 115.23 138.679 115.402 138.617C115.574 138.555 115.763 138.644 115.825 138.816C117.418 143.116 121.115 145.868 126.802 146.993C128.303 147.364 129.878 147.292 131.339 146.788C132.759 146.277 133.784 145.029 134.008 143.538C134.12 142.252 133.579 140.966 133.056 139.729L132.876 139.288C132.184 137.609 131.847 135.804 131.886 133.988V133.771C131.919 133.402 131.904 133.03 131.843 132.665C131.779 132.294 131.55 131.971 131.221 131.788C130.765 131.654 130.273 131.809 129.976 132.18C129.644 132.625 129.43 133.146 129.354 133.696C129.021 135.158 128.964 136.669 129.186 138.151C129.212 138.326 129.093 138.489 128.918 138.518C128.759 138.538 128.609 138.437 128.57 138.282C128.276 136.518 128.222 134.723 128.408 132.944V132.839C128.467 132.462 128.467 132.078 128.408 131.702C128.352 131.361 128.113 131.079 127.785 130.968C127.63 130.936 127.469 130.947 127.319 130.999C126.665 131.211 126.192 131.931 125.912 133.124C125.577 134.582 125.47 136.083 125.595 137.573C125.573 137.719 125.457 137.831 125.31 137.847C125.164 137.863 125.025 137.779 124.973 137.642C124.74 135.884 124.713 134.105 124.892 132.342C124.954 131.72 124.985 131.037 124.581 130.738C124.293 130.568 123.935 130.568 123.647 130.738C123.309 130.942 123.028 131.229 122.832 131.571C121.774 133.211 121.531 135.299 121.314 137.163C121.292 137.322 121.157 137.441 120.996 137.443C120.836 137.441 120.701 137.322 120.679 137.163C120.493 135.66 120.566 134.136 120.897 132.658C121.077 132.233 121.077 131.754 120.897 131.329C120.794 131.19 120.639 131.1 120.467 131.08C120.191 131.04 119.909 131.109 119.683 131.273C119.266 131.644 118.973 132.134 118.843 132.677C118.363 133.996 118.141 135.394 118.19 136.797C118.19 137.014 118.221 137.207 118.233 137.387C118.255 137.876 118.307 138.364 118.389 138.847C118.381 138.998 118.269 139.123 118.12 139.148C117.971 139.173 117.824 139.092 117.767 138.953C117.682 138.449 117.628 137.941 117.605 137.43C117.605 137.25 117.605 137.058 117.561 136.846C117.509 135.366 117.742 133.89 118.246 132.497C118.414 131.827 118.786 131.226 119.31 130.776C119.67 130.518 120.115 130.407 120.554 130.465C120.894 130.513 121.201 130.694 121.407 130.968C121.716 131.543 121.759 132.223 121.525 132.832C121.522 132.865 121.522 132.899 121.525 132.932C121.726 132.361 121.992 131.815 122.316 131.304C122.571 130.868 122.933 130.505 123.367 130.248C123.869 129.954 124.494 129.971 124.979 130.291C125.601 130.763 125.601 131.633 125.601 132.236C125.825 131.431 126.411 130.776 127.188 130.465C127.452 130.371 127.737 130.356 128.009 130.422C128.573 130.6 128.987 131.081 129.08 131.664C129.137 131.948 129.153 132.239 129.13 132.528C129.237 132.303 129.376 132.094 129.54 131.907C130.015 131.304 130.826 131.078 131.544 131.347C132.055 131.615 132.414 132.104 132.515 132.671C132.588 133.081 132.611 133.498 132.583 133.914V134.131C132.549 135.857 132.869 137.572 133.523 139.17L133.703 139.605C134.232 140.848 134.83 142.271 134.705 143.719C134.471 145.456 133.285 146.918 131.631 147.509C130.746 147.803 129.812 147.921 128.881 147.857Z" fill="#231F20"/>
<path id="Path_31" d="M183.151 104.144L182.205 118.398C182.205 118.398 152.957 95.4079 148.06 94.4199V98.4401C148.06 98.4401 139.927 97.4459 139.279 99.0615C138.632 100.677 139.734 106.816 141.849 108.059C143.094 108.811 153.604 108.873 153.604 108.873C153.604 108.873 155.092 112.514 169.591 125.854C184.09 139.195 197.731 146.328 198.584 133.833C199.436 121.337 200.519 100.279 200.519 100.279" fill="white"/>
<path id="Path_32" d="M193.219 140.612C188.073 140.612 179.598 135.479 169.373 126.072C156.623 114.335 153.903 110.091 153.405 109.177C151.669 109.177 142.932 109.053 141.688 108.32C139.36 106.947 138.284 100.658 138.981 98.9248C139.678 97.1912 145.776 97.8312 147.742 98.0487V94.3889C147.744 94.2928 147.787 94.202 147.861 94.1404C147.936 94.0811 148.033 94.0563 148.128 94.072C152.752 95.0041 177.998 114.651 181.925 117.74L182.827 104.107C182.8 103.973 182.86 103.837 182.977 103.766C183.094 103.696 183.243 103.706 183.349 103.792C183.455 103.878 183.495 104.022 183.449 104.15L182.528 118.398C182.522 118.517 182.447 118.622 182.336 118.665C182.227 118.716 182.1 118.702 182.006 118.628C181.726 118.404 154.14 96.7501 148.402 94.8177V98.4153C148.403 98.5075 148.365 98.5956 148.296 98.6577C148.227 98.7208 148.134 98.7504 148.041 98.7384C144.768 98.3345 139.951 98.2041 139.597 99.1672C139.005 100.64 140.082 106.623 142.03 107.773C142.907 108.289 149.441 108.512 153.623 108.543C153.754 108.542 153.873 108.621 153.922 108.742C153.922 108.773 155.646 112.551 169.828 125.606C181.464 136.3 190.674 141.389 195.155 139.643C197.022 138.903 198.061 136.933 198.266 133.796C199.106 121.449 200.189 100.447 200.202 100.242C200.205 100.157 200.242 100.077 200.305 100.019C200.369 99.962 200.452 99.9326 200.538 99.9377C200.623 99.9408 200.703 99.9782 200.761 100.041C200.818 100.105 200.848 100.188 200.843 100.273C200.843 100.484 199.747 121.493 198.907 133.827C198.671 137.232 197.488 139.419 195.379 140.22C194.691 140.488 193.958 140.621 193.219 140.612Z" fill="#231F20"/>
<path id="Path_33" d="M182.205 118.367L189.218 123.587L182.205 118.367Z" fill="white"/>
<path id="Path_34" d="M189.218 123.909C189.15 123.906 189.083 123.884 189.025 123.847L182.012 118.628C181.872 118.518 181.845 118.317 181.95 118.174C182.058 118.035 182.257 118.008 182.398 118.112L189.411 123.331C189.519 123.416 189.563 123.559 189.519 123.688C189.476 123.818 189.355 123.907 189.218 123.909Z" fill="#231F20"/>
<path id="Path_35" d="M20.0049 92.6368C20.0049 92.6368 32.0026 114.881 32.3262 115.751C32.4382 116.043 57.0499 102.883 57.9522 101.087C57.6565 99.0712 57.8551 97.0137 58.5309 95.0911C58.9292 94.041 59.6635 93.9105 60.5347 93.1711C60.4226 94.4832 60.3976 95.8013 60.46 97.1168C62.1116 95.3734 63.8967 93.7613 65.7993 92.295C66.2014 91.8703 66.792 91.6784 67.3674 91.7855C67.6255 91.9153 67.8413 92.1157 67.9897 92.3634C70.5411 95.9486 68.4129 100.255 66.5834 103.61C63.1359 109.923 57.9708 113.844 52.4822 118.255C48.8272 121.173 45.0241 123.9 41.0881 126.426C38.0403 128.485 34.7996 130.243 31.4115 131.677C29.3828 132.485 26.5825 133.541 24.4294 132.534C16.6196 128.918 7.66484 110.439 5.21924 102.305" fill="white"/>
<path id="Path_36" d="M26.464 133.255C25.7267 133.266 24.9959 133.115 24.3233 132.814C19.8988 130.769 15.4868 124.32 12.5682 119.268C9.45036 113.924 6.89768 108.27 4.95137 102.398C4.92306 102.243 5.0156 102.091 5.16663 102.045C5.31766 101.999 5.47927 102.073 5.54254 102.218C8.03171 110.581 17.0549 128.769 24.5847 132.254C26.5386 133.155 29.09 132.254 31.3241 131.391C34.6897 129.962 37.9095 128.212 40.9385 126.165C44.8678 123.644 48.6646 120.923 52.3139 118.013L53.2598 117.249C58.3315 113.191 63.1169 109.357 66.3279 103.461C68.2633 99.9189 70.1239 95.8676 67.753 92.5434C67.6337 92.3426 67.4586 92.1807 67.2489 92.0774C66.8569 91.922 66.3653 92.2451 66.0043 92.5372C64.1185 93.9982 62.3461 95.5996 60.7024 97.3278C60.6182 97.4161 60.49 97.4471 60.3747 97.4069C60.2593 97.3667 60.1782 97.2629 60.1673 97.1414C60.1175 96.5698 60.1237 94.9045 60.1673 93.8358L59.9494 93.9849C59.4368 94.2489 59.0384 94.6909 58.8293 95.2276C58.1783 97.0977 57.9842 99.0959 58.263 101.056C58.2844 101.118 58.2844 101.186 58.263 101.249C57.7403 102.293 50.8764 106.257 45.1949 109.395C41.959 111.19 32.9296 116.093 32.3384 116.093C32.2119 116.084 32.1012 116.005 32.0521 115.888C31.8032 115.217 23.8939 100.497 19.7494 92.8106C19.667 92.6596 19.7227 92.4704 19.8739 92.388C20.0251 92.3057 20.2146 92.3613 20.2971 92.5123C20.7638 93.3822 31.2307 112.8 32.5126 115.403C35.2258 114.322 56.2966 102.752 57.6283 101C57.3477 98.9682 57.5611 96.8988 58.2506 94.9667C58.5096 94.3174 58.9901 93.7804 59.6072 93.4506C59.8643 93.2871 60.1116 93.1087 60.3477 92.9162C60.4464 92.8306 60.5881 92.8157 60.7024 92.8789C60.8138 92.9433 60.8753 93.0684 60.858 93.1958C60.7643 94.2452 60.729 95.299 60.7522 96.3523C62.2719 94.7921 63.8979 93.3388 65.6185 92.0028C66.1288 91.6113 66.8071 91.1888 67.4854 91.4498C67.8095 91.5995 68.0837 91.8389 68.2757 92.1395C71.0636 96.0541 68.4499 100.839 66.888 103.715C63.6147 109.718 58.7982 113.589 53.6581 117.69L52.706 118.454C49.0449 121.38 45.2333 124.114 41.2869 126.644C38.2227 128.713 34.9654 130.481 31.5605 131.925C29.9568 132.674 28.2297 133.125 26.464 133.255Z" fill="#231F20"/>
<path id="Path_37" d="M20.0049 92.9224C19.8944 92.9217 19.7926 92.8626 19.7373 92.7671L13.7135 82.5084C13.6259 82.3591 13.6761 82.1672 13.8256 82.0797C13.9751 81.9922 14.1673 82.0423 14.2549 82.1915L20.2912 92.4812C20.3337 92.5518 20.3458 92.6366 20.3247 92.7162C20.3036 92.7958 20.2511 92.8635 20.1791 92.9038C20.1246 92.9284 20.0635 92.935 20.0049 92.9224Z" fill="#231F20"/>
<path id="Path_38" d="M183.151 104.467C183.066 104.459 182.989 104.418 182.935 104.353C182.881 104.288 182.856 104.203 182.864 104.119L184.19 89.6976C184.21 89.5239 184.364 89.3972 184.538 89.4118C184.625 89.4163 184.705 89.4563 184.76 89.5223C184.816 89.5883 184.841 89.6743 184.831 89.7597L183.499 104.175C183.493 104.261 183.452 104.34 183.387 104.395C183.321 104.45 183.236 104.476 183.151 104.467Z" fill="#231F20"/>
</g>
</g>
</g>
<defs>
<linearGradient id="paint0_linear_1_10488" x1="0" y1="202" x2="202" y2="202" gradientUnits="userSpaceOnUse">
<stop stop-color="#5D0202" stop-opacity="0.01"/>
<stop offset="1" stop-color="#5D0202" stop-opacity="0.497569"/>
</linearGradient>
</defs>
</svg>
