<svg width="210" height="210" viewBox="0 0 210 210" fill="none" xmlns="http://www.w3.org/2000/svg">
<g id="Group 23">
<g id="Oval" opacity="0.202683" filter="url(#filter0_d_1_10197)">
<circle cx="101" cy="101" r="101" transform="matrix(-1 0 0 1 206 0)" fill="url(#paint0_linear_1_10197)" shape-rendering="crispEdges"/>
</g>
<g id="designer_(1) 2">
<g id="designer_(1)">
<path id="Path" d="M168.845 138.137C168.845 138.137 191.439 79.1713 179.733 70.1789C168.028 61.1865 118.935 64.8178 116.246 68.0303C113.556 71.2429 97.7202 142.221 97.7202 142.221L168.845 138.137Z" fill="#231F20"/>
<path id="Shape" fill-rule="evenodd" clip-rule="evenodd" d="M97.4255 142.461C97.4924 142.535 97.5869 142.577 97.6862 142.578L97.7068 142.592L168.865 138.473C169.001 138.467 169.12 138.381 169.167 138.253L169.171 138.244C169.34 137.802 174.939 123.153 179.013 107.617C184.605 86.3926 184.921 73.7347 179.947 69.918C172.797 64.4334 152.837 64.097 144.604 64.2069C130.579 64.3922 117.474 66.0465 115.985 67.8244C113.268 71.0644 98.0018 139.262 97.3569 142.166C97.3305 142.27 97.3561 142.38 97.4255 142.461ZM144.618 64.8727H147.197C163.15 64.8727 174.862 66.884 179.507 70.4466C190.54 78.9104 170.032 133.956 168.584 137.793L98.0979 141.857C103.614 117.214 114.428 70.728 116.486 68.25C117.687 66.8428 130.209 65.0649 144.618 64.8727Z" fill="#231F20"/>
<path id="Path_2" d="M77.1021 87.1888L66.9199 121.38C66.9199 121.38 87.9224 124.092 87.9224 123.316C87.9224 122.541 92.0392 85.6924 92.0392 85.6924L77.1021 87.1888Z" fill="white"/>
<path id="Shape_2" fill-rule="evenodd" clip-rule="evenodd" d="M66.8788 121.703C73.253 122.541 83.3185 123.762 86.8658 123.762C87.2942 123.802 87.7259 123.743 88.1283 123.591C88.2101 123.514 88.2592 123.408 88.2655 123.296C88.2655 122.602 90.962 98.4053 92.3823 85.7061C92.3968 85.6044 92.361 85.502 92.2862 85.4315C92.2153 85.357 92.1142 85.3191 92.0118 85.3286L77.0679 86.825C76.9282 86.8393 76.8114 86.9372 76.7728 87.0721L66.5906 121.264C66.564 121.361 66.5803 121.464 66.6355 121.549C66.6906 121.633 66.7793 121.689 66.8788 121.703ZM87.5657 123.097C85.9738 123.323 74.6389 122.026 67.3385 121.092L77.3423 87.5115L91.6276 86.0768C91.6001 86.323 91.5624 86.661 91.5158 87.0797C90.7801 93.678 87.8108 120.308 87.5657 123.097Z" fill="#231F20"/>
<path id="Path_3" d="M57.8011 78.6973C57.8903 78.7934 61.5062 77.8255 63.3725 80.0701C65.2388 82.3148 62.8168 84.3192 56.9229 83.1591C51.029 81.999 57.8011 78.6973 57.8011 78.6973Z" fill="white"/>
<path id="Shape_3" fill-rule="evenodd" clip-rule="evenodd" d="M56.8542 83.5027C57.9 83.7158 58.9637 83.8284 60.031 83.8391C62.055 83.8391 63.5302 83.3174 64.0997 82.4181C64.5388 81.663 64.381 80.7638 63.64 79.8852C61.991 77.9083 59.097 78.2602 58.1163 78.3794C58.1094 78.3802 58.1027 78.3811 58.0961 78.3819H57.8696C57.7984 78.3578 57.7213 78.3578 57.6501 78.3819C57.0326 78.6908 53.9724 80.2627 54.1714 81.8141C54.2743 82.6172 55.1526 83.1664 56.8542 83.5027ZM54.8712 81.6905C54.7752 80.9286 56.5385 79.7204 57.8765 79.034C57.9588 79.034 58.0549 79.034 58.1853 79.0065C59.139 78.883 61.6845 78.5672 63.098 80.2558C63.5806 80.686 63.7376 81.375 63.4891 81.9719C62.9813 82.83 60.9778 83.5576 56.9914 82.7751C55.228 82.425 54.8712 81.9445 54.8712 81.6905Z" fill="#231F20"/>
<path id="Path_4" d="M48.7372 71.5244C48.7372 71.5244 47.9962 70.6732 48.4628 70.076C48.6757 69.83 48.9942 69.7019 49.3181 69.7318C49.642 69.7618 49.9315 69.9462 50.0958 70.227C50.0958 70.227 48.9294 70.6458 48.7372 71.5244Z" fill="white"/>
<path id="Shape_4" fill-rule="evenodd" clip-rule="evenodd" d="M48.47 71.7574C48.5385 71.8327 48.6359 71.8752 48.7376 71.8741L48.8268 71.8673C48.9554 71.8335 49.0537 71.7298 49.0807 71.5996C49.2042 71.0435 49.9383 70.6591 50.2128 70.563C50.321 70.5239 50.4031 70.4341 50.4323 70.3228C50.466 70.2106 50.4401 70.0889 50.3637 70.0001C50.0866 69.6151 49.6441 69.3836 49.1699 69.3755C48.7847 69.376 48.4219 69.5562 48.1887 69.8629C47.6741 70.5081 48.1269 71.3593 48.47 71.7574ZM48.7513 70.2953C48.8562 70.1631 49.0149 70.085 49.1836 70.0825L49.1904 70.11C49.293 70.0953 49.3975 70.1096 49.4923 70.1512C49.2091 70.315 48.958 70.529 48.7513 70.7827C48.672 70.6299 48.672 70.4481 48.7513 70.2953Z" fill="#231F20"/>
<path id="Path_5" d="M50.3568 70.1924C49.5174 70.2606 48.8296 70.8867 48.6826 71.7163L63.4001 90.8748C63.587 88.9853 65.0408 87.4685 66.92 87.2024L50.3568 70.1924Z" fill="white"/>
<path id="Shape_5" fill-rule="evenodd" clip-rule="evenodd" d="M63.1189 91.0877C63.1843 91.1732 63.2856 91.2239 63.3933 91.2249L63.4962 91.2112C63.6371 91.1715 63.7384 91.0483 63.7501 90.9023C63.9243 89.1728 65.2603 87.788 66.9818 87.5525C67.111 87.5302 67.217 87.4374 67.2562 87.3122C67.2999 87.1873 67.2678 87.0484 67.1739 86.9553L50.6107 69.9453C50.5443 69.876 50.4528 69.8364 50.3568 69.8354C49.3617 69.9134 48.5386 70.6416 48.3396 71.6202C48.3112 71.7272 48.334 71.8413 48.4013 71.9291L63.1189 91.0877ZM63.2149 90.0511L49.0738 71.6477C49.2226 71.0975 49.6684 70.678 50.2265 70.5631L66.227 86.9965C64.7605 87.4215 63.6198 88.5782 63.2149 90.0511Z" fill="#231F20"/>
<path id="Path_6" d="M63.4001 90.875L68.4225 93.4835L69.0469 92.9L66.9199 87.2026C66.9199 87.2026 63.009 86.8113 63.4001 90.875Z" fill="white"/>
<path id="Shape_6" fill-rule="evenodd" clip-rule="evenodd" d="M68.258 93.7925C68.3084 93.8204 68.3651 93.8346 68.4227 93.8337C68.5109 93.8341 68.5962 93.8024 68.6628 93.7445L69.2872 93.161C69.3932 93.0635 69.4286 92.9109 69.3764 92.7766L67.2563 87.0792C67.2091 86.9495 67.0916 86.8587 66.9544 86.8458C65.855 86.7542 64.7649 87.1078 63.9285 87.8274C63.1763 88.6617 62.8499 89.7959 63.0434 90.9026C63.0544 91.0234 63.1271 91.1299 63.2355 91.1841L68.258 93.7925ZM68.3609 93.0512L63.7364 90.6486C63.614 89.812 63.8648 88.9638 64.4225 88.3285C65.0518 87.801 65.8524 87.5225 66.673 87.5459L68.6354 92.8041L68.3609 93.0512Z" fill="#231F20"/>
<path id="Path_7" d="M68.4224 93.4834L69.3829 94.513L69.8358 93.9982L69.0467 92.8999L68.4224 93.4834Z" fill="white"/>
<path id="Shape_7" fill-rule="evenodd" clip-rule="evenodd" d="M69.1294 94.7535C69.1926 94.8282 69.2856 94.8709 69.3833 94.8702H69.4107C69.5118 94.8703 69.6075 94.825 69.6715 94.7467L70.1243 94.2318C70.2276 94.1036 70.2276 93.9207 70.1243 93.7925L69.3353 92.6942C69.2758 92.6121 69.1842 92.5593 69.0834 92.5488C68.9826 92.5383 68.8821 92.5712 68.8069 92.6393L68.1826 93.2228C68.1131 93.2868 68.0712 93.3755 68.0659 93.4699C68.0653 93.5635 68.0996 93.654 68.162 93.7239L69.1294 94.7535ZM69.3764 93.9847L68.9236 93.4973L68.9853 93.4424L69.3764 93.9847Z" fill="#231F20"/>
<path id="Path_8" d="M58.7344 92.3785C59.544 90.7379 61.575 87.2576 62.0416 85.7474C63.3315 81.6288 55.7772 77.771 53.3346 77.771C50.8919 77.771 45.7871 86.3103 45.7871 90.8751C45.7871 95.44 62.7002 130.394 62.7002 130.394L78.9273 122.966L58.7344 92.3785Z" fill="white"/>
<path id="Shape_8" fill-rule="evenodd" clip-rule="evenodd" d="M62.405 130.551C62.4631 130.673 62.5859 130.75 62.7206 130.751C62.78 130.759 62.8406 130.747 62.8921 130.716L79.126 123.275C79.2184 123.233 79.2883 123.153 79.3181 123.056C79.3443 122.955 79.3268 122.848 79.2701 122.76L59.1733 92.351C59.3247 92.068 59.4969 91.741 59.686 91.3821C59.8224 91.123 59.9677 90.8472 60.1202 90.5594C60.9919 89.047 61.7577 87.4758 62.4119 85.8573C62.7756 84.5367 62.4593 83.1216 61.5679 82.0819C59.585 79.4185 55.2143 77.4141 53.3343 77.4141C50.6104 77.4141 45.4507 86.2897 45.4507 90.8752C45.4507 95.3455 60.9128 127.453 62.3244 130.384C62.3607 130.459 62.3878 130.516 62.405 130.551ZM46.1643 90.8752C46.1643 86.3584 51.1867 78.1211 53.3343 78.1211C54.9124 78.1211 59.0773 79.9264 60.9916 82.528C61.7444 83.3883 62.0197 84.5671 61.7257 85.6719C61.0848 87.2471 60.3375 88.7768 59.4889 90.2505C59.0773 91.0193 58.6999 91.7264 58.4392 92.248C58.3781 92.3592 58.3781 92.4938 58.4392 92.605L78.4262 122.808L62.8853 129.934L62.839 129.837C60.9526 125.901 46.1643 95.0399 46.1643 90.8752Z" fill="#231F20"/>
<path id="Path_9" d="M145.07 99.2975L165.071 94.1972C164.385 93.2293 156.316 67.6045 147.808 63.4104C140.364 58.468 122.709 55.1731 107.114 56.292C107.114 56.292 102.997 56.141 95.7787 59.0034C78.2 65.9914 74.8105 90.3257 74.8105 90.3257L88.5332 95.069C88.5332 95.069 85.9122 126.542 83.4352 142.996C83.4352 142.996 113.776 148.934 157.949 141.623C157.983 141.61 145.153 103.952 145.07 99.2975Z" fill="#E7816B"/>
<path id="Path_10" d="M143.424 64.1174C140.775 66.8631 138.71 70.158 135.787 72.7459C129.488 78.3198 121.248 82.7336 112.609 82.1982C102.427 81.5667 93.6241 74.6062 91.4148 64.4674C90.0425 58.111 91.4696 52.2076 96.3823 47.7183C99.7787 44.6156 104.129 42.721 108.575 41.5403C120.383 38.3758 133.632 40.0576 143.712 46.9907C145.359 48.0048 146.749 49.3862 147.774 51.0269C150.292 55.5918 147.396 60.287 144.13 63.4241C143.911 63.6369 143.677 63.8771 143.424 64.1174Z" fill="#E7816B"/>
<path id="Path_11" d="M108.684 71.3114C108.582 71.3114 106.688 73.6178 106.592 73.6521C107.669 77.7159 108.808 83.0083 113.405 83.53C122.73 84.594 124.143 72.1557 125.9 66.2866C119.443 68.0988 114.887 68.8265 108.684 71.3114Z" fill="#231F20"/>
<path id="Shape_9" fill-rule="evenodd" clip-rule="evenodd" d="M113.371 83.8732C113.744 83.9159 114.12 83.9388 114.496 83.9418C121.81 83.935 123.985 75.2309 125.405 69.355C125.433 69.2475 125.459 69.1406 125.486 69.0345C125.73 68.0623 125.959 67.148 126.195 66.3621C126.227 66.2433 126.196 66.1161 126.112 66.0257C126.025 65.9371 125.896 65.903 125.776 65.9365C123.774 66.4989 121.971 66.9516 120.223 67.3906L120.218 67.3917C116.25 68.304 112.352 69.4992 108.554 70.9681C108.444 71.0161 108.431 71.023 107.367 72.2449C107.003 72.6705 106.503 73.2539 106.393 73.3569C106.276 73.4381 106.222 73.5827 106.256 73.7207L106.434 74.4072L106.445 74.4494C107.493 78.4168 108.797 83.3533 113.371 83.8732ZM107.072 74.2356L106.949 73.7619H106.969C107.12 73.5972 107.388 73.2951 107.868 72.6773C108.225 72.2586 108.705 71.7094 108.842 71.5722C112.603 70.1161 116.465 68.9369 120.397 68.0439C120.701 67.9661 121.008 67.8879 121.32 67.8087C122.605 67.4821 123.955 67.1387 125.385 66.7465C125.179 67.4878 124.973 68.3116 124.761 69.1696L124.756 69.1871C123.192 75.4596 121.055 84.0302 113.426 83.1593C109.311 82.7278 108.127 78.237 107.079 74.2622L107.072 74.2356Z" fill="#231F20"/>
<path id="Path_12" d="M117.714 23.4323C116.342 23.3774 115.464 23.9746 114.283 24.4002C111.985 25.2102 110.915 23.2882 108.939 22.2654C102.524 18.9289 94.6473 20.5802 90.1111 26.2124C88.742 27.8346 87.8553 29.8086 87.5518 31.9099C87.2636 34.2849 87.9292 36.7149 87.5175 39.0626C87.0059 41.8036 85.1178 44.0869 82.5225 45.1032C84.7191 45.2729 86.9285 45.0639 89.0544 44.4854C87.8181 45.9555 86.0069 46.819 84.0868 46.8537C86.2749 48.5369 88.9635 49.4383 91.7235 49.4141L86.8863 50.5467C91.003 53.1895 96.0187 53.9789 100.87 53.7593C110.53 53.2582 126.709 49.3043 126.428 36.7836C126.27 31.9854 123.635 23.7069 117.714 23.4323Z" fill="white"/>
<path id="Shape_10" fill-rule="evenodd" clip-rule="evenodd" d="M86.6734 50.8554C90.7764 53.4777 95.5107 54.1641 99.209 54.1641C99.7853 54.1641 100.341 54.1504 100.917 54.1092C103.834 53.9582 111.299 53.2305 117.556 50.0935C123.814 46.9565 126.922 42.474 126.798 36.7834C126.702 31.4155 123.724 23.3566 117.783 23.0958C116.843 23.0898 115.917 23.3087 115.079 23.7342C115.036 23.7519 114.993 23.7698 114.95 23.7878C114.71 23.8881 114.463 23.9911 114.201 24.0843C112.76 24.5854 111.882 23.9195 110.77 23.0752C110.25 22.6592 109.694 22.2894 109.11 21.97C102.552 18.5539 94.4961 20.2399 89.857 25.9994C88.4471 27.6732 87.5344 29.7089 87.2223 31.8754C87.1151 33.0169 87.1151 34.166 87.2223 35.3076C87.36 36.5448 87.3461 37.7942 87.1811 39.0281C86.6901 41.6559 84.8721 43.8411 82.3782 44.801C82.2251 44.8553 82.1327 45.0113 82.1586 45.1717C82.1803 45.33 82.3083 45.4524 82.4674 45.4669C84.2904 45.6107 86.1247 45.4952 87.9153 45.1237C86.8215 46.0122 85.4612 46.5078 84.0524 46.5309C83.9047 46.5309 83.7736 46.6254 83.7269 46.7656C83.6802 46.9057 83.7284 47.06 83.8465 47.1487C85.4941 48.4136 87.4254 49.2572 89.4728 49.6061L86.7832 50.2308C86.6517 50.2663 86.5511 50.3722 86.5224 50.5054C86.4992 50.6416 86.5584 50.7788 86.6734 50.8554ZM100.828 53.4777C97.2672 53.6493 92.183 53.306 87.7506 50.7319L91.7851 49.7228C91.9556 49.6821 92.0681 49.5193 92.0458 49.3453C92.0279 49.1704 91.8784 49.0387 91.7027 49.0432C89.3339 49.0665 87.0111 48.3882 85.0267 47.0938C86.6933 46.8278 88.2084 45.97 89.2944 44.6775C89.3804 44.5562 89.3804 44.3938 89.2944 44.2725C89.2123 44.1446 89.056 44.086 88.9102 44.1283C87.2604 44.5817 85.5574 44.8126 83.8465 44.8148C85.924 43.5771 87.367 41.5031 87.8055 39.1242C87.9814 37.8361 87.9998 36.5314 87.8604 35.2389C87.7575 34.1453 87.7575 33.0445 87.8604 31.9509C88.1647 29.9245 89.0271 28.0229 90.351 26.4593C94.7822 20.9495 102.486 19.3374 108.753 22.6084C109.302 22.9073 109.823 23.2541 110.311 23.6449C111.484 24.5373 112.595 25.3816 114.372 24.757C114.656 24.6603 114.924 24.5477 115.186 24.4378C115.221 24.4229 115.257 24.408 115.292 24.3932C116.039 24.0152 116.863 23.8155 117.7 23.8097C123.203 24.0774 125.941 31.7449 126.057 36.8521C126.174 42.2612 123.196 46.524 117.192 49.5306C110.983 52.6471 103.683 53.3266 100.828 53.4777Z" fill="#231F20"/>
<path id="Path_13" d="M105.906 61.8316L106.592 73.6521C106.592 73.6521 111.992 79.8301 118.942 76.0341C125.893 72.238 125.625 66.218 125.625 66.218L121.062 44.0253C121.062 44.0253 114.757 42.5701 113.151 30.1455C107.772 34.4064 101.344 37.136 94.5435 38.0464C94.5435 38.0464 94.667 51.9469 97.1164 57.4727C99.5659 62.9986 105.906 61.8316 105.906 61.8316Z" fill="white"/>
<path id="Shape_11" fill-rule="evenodd" clip-rule="evenodd" d="M106.331 73.8788C106.372 73.9337 109.659 77.6062 114.379 77.6062C116.031 77.5888 117.65 77.1518 119.086 76.3363C126.044 72.5382 125.952 66.458 125.948 66.1593C125.948 66.1546 125.948 66.1513 125.948 66.1495L121.378 43.9363C121.351 43.806 121.253 43.7023 121.124 43.6686C119.864 43.2394 118.748 42.4696 117.899 41.4445C116.328 39.7284 114.283 36.3717 113.474 30.0839C113.455 29.9596 113.371 29.8548 113.254 29.8093C113.135 29.7632 113 29.787 112.904 29.8711C107.565 34.0685 101.203 36.765 94.4747 37.6828C94.3057 37.7097 94.1809 37.8548 94.1797 38.026L94.1798 38.0391C94.1886 38.7752 94.3469 52.1346 96.7801 57.5896C98.9552 62.4976 104.115 62.3603 105.563 62.2162L106.249 73.6729C106.251 73.7491 106.28 73.8221 106.331 73.8788ZM118.784 75.7116C112.52 79.137 107.607 74.2358 106.921 73.4875L106.249 61.7769C106.241 61.6782 106.194 61.5867 106.118 61.5229C106.04 61.4648 105.94 61.4424 105.844 61.4611L105.843 61.4612C105.588 61.5039 99.7355 62.4797 97.4251 57.2807C95.2363 52.3314 94.8933 40.3462 94.8933 38.2869C101.432 37.3183 107.623 34.7219 112.897 30.736C114.469 41.5818 119.628 43.8608 120.767 44.2383L125.289 66.2044C125.289 66.205 125.289 66.2063 125.289 66.2084C125.292 66.3877 125.38 72.1002 118.784 75.7116Z" fill="#231F20"/>
<path id="Path_14" d="M118.489 50.2445C120.101 50.4874 121.744 50.0827 123.059 49.1187C124.865 47.6881 125.795 45.4201 125.515 43.1329C125.473 42.2923 125.238 41.4727 124.829 40.7373C124.424 39.993 123.715 39.4619 122.888 39.282C121.874 39.219 120.868 39.4863 120.019 40.044C118.688 40.7304 118.647 41.4923 117.92 42.6181C118.002 42.5151 118.064 42.2268 118.146 42.1239" fill="white"/>
<path id="Path_15" d="M119.409 50.6633C119.083 50.662 118.757 50.6368 118.435 50.5878C118.246 50.5562 118.118 50.3788 118.146 50.1896C118.16 50.0999 118.209 50.0193 118.283 49.9663C118.356 49.9133 118.448 49.8924 118.538 49.9082C120.058 50.132 121.604 49.7445 122.84 48.8305C124.549 47.4696 125.426 45.3152 125.152 43.1467C125.124 42.3592 124.915 41.5886 124.541 40.8952C124.183 40.2452 123.564 39.7802 122.84 39.6184C121.989 39.4674 121.138 39.8587 120.191 40.3461C119.54 40.6627 119.031 41.2111 118.764 41.8837C118.62 42.1445 118.462 42.4397 118.249 42.7623C118.235 42.7902 118.217 42.8157 118.194 42.8378C118.08 42.9798 117.873 43.0042 117.728 42.8928C117.577 42.7862 117.54 42.5778 117.646 42.426C117.646 42.426 117.646 42.3367 117.694 42.2887C117.734 42.1644 117.792 42.0465 117.865 41.9386C117.901 41.897 117.945 41.8641 117.995 41.8425L118.126 41.5954C118.465 40.7991 119.078 40.1511 119.855 39.7694C120.665 39.3507 121.783 38.7741 122.929 38.9732C123.872 39.1604 124.685 39.7528 125.152 40.5932C125.573 41.3783 125.807 42.2496 125.838 43.1399C126.133 45.5435 125.149 47.9262 123.244 49.4208C122.13 50.2322 120.787 50.6674 119.409 50.6633Z" fill="#231F20"/>
<path id="Path_16" d="M106.263 68.0509C109.006 67.8535 111.474 66.3116 112.856 63.9323C115.278 59.8892 114.311 57.3013 114.311 57.3013C114.311 57.3013 111.045 61.468 105.906 61.8043L106.263 68.0509Z" fill="#231F20"/>
<path id="Shape_12" fill-rule="evenodd" clip-rule="evenodd" d="M105.926 68.0646C105.934 68.245 106.082 68.3874 106.263 68.3873L106.283 68.4216C109.135 68.2385 111.709 66.6449 113.144 64.1725C115.628 60.0333 114.674 57.3562 114.633 57.2463C114.589 57.131 114.487 57.0475 114.366 57.0267C114.243 57.0084 114.119 57.0583 114.043 57.1571C114.043 57.1576 114.042 57.1588 114.04 57.1606C113.927 57.2995 110.742 61.2111 105.885 61.5229C105.794 61.5282 105.709 61.5695 105.648 61.6378C105.588 61.7061 105.557 61.7956 105.563 61.8867L105.926 68.0646ZM106.585 67.6802L106.263 62.1407C109.274 61.7486 112.051 60.3073 114.105 58.0701C114.229 59.0311 114.187 61.0355 112.547 63.7813C111.27 65.9343 109.069 67.3741 106.585 67.6802Z" fill="#231F20"/>
<path id="Path_17" d="M105 43.0439C105 43.0439 102.427 49.826 103.593 50.636C104.76 51.446 107.223 50.1555 107.223 50.1555" fill="white"/>
<path id="Path_18" d="M104.609 51.2466C104.18 51.2663 103.755 51.1511 103.395 50.9171C102.105 50.0248 104.081 44.5744 104.671 42.9201C104.738 42.7447 104.934 42.656 105.11 42.721C105.196 42.7533 105.265 42.8187 105.303 42.9025C105.34 42.9864 105.342 43.0817 105.309 43.1672C104.115 46.318 103.25 49.963 103.786 50.3474C104.602 50.9103 106.427 50.1826 107.058 49.8532C107.227 49.7668 107.434 49.8307 107.525 49.9973C107.61 50.1661 107.542 50.3716 107.374 50.4572C106.519 50.9152 105.577 51.1843 104.609 51.2466Z" fill="#231F20"/>
<ellipse id="Oval_2" cx="109.628" cy="41.533" rx="0.994933" ry="1.40714" transform="rotate(-17.91 109.628 41.533)" fill="#231F20"/>
<ellipse id="Oval_3" cx="100.443" cy="43.7109" rx="0.994891" ry="1.4072" transform="rotate(-0.78 100.443 43.7109)" fill="#231F20"/>
<path id="Shape_13" fill-rule="evenodd" clip-rule="evenodd" d="M103.964 58.8046C104.51 59.1745 105.158 59.3641 105.817 59.3469C106.237 59.3453 106.655 59.2852 107.059 59.1684C108.703 58.6554 110.021 57.4154 110.633 55.8049C111.136 54.5082 111.327 53.1114 111.189 51.7274C111.176 51.6291 111.124 51.5401 111.045 51.4803C110.887 51.3636 110.791 51.295 101.913 53.2376C101.749 53.2736 101.634 53.4203 101.638 53.5877L101.638 53.5878C101.645 53.7407 101.804 57.2263 103.964 58.8046ZM104.355 58.2417C102.805 57.116 102.434 54.686 102.352 53.8554V53.8485C105.179 53.2307 109.344 52.3383 110.524 52.1255C110.605 53.2941 110.427 54.4662 110.002 55.5577C109.458 56.975 108.295 58.065 106.846 58.5163C106.016 58.8015 105.103 58.7008 104.355 58.2417Z" fill="#231F20"/>
<path id="Path_19" d="M110.318 55.6949C109 58.88 105.7 59.642 104.143 58.5368C104.493 57.3218 105.131 56.0587 106.318 55.5988C107.62 55.1543 109.038 55.1884 110.318 55.6949Z" fill="#231F20"/>
<path id="Shape_14" fill-rule="evenodd" clip-rule="evenodd" d="M103.964 58.8042C104.511 59.1708 105.158 59.358 105.817 59.3397C106.236 59.34 106.654 59.2822 107.058 59.168C108.7 58.6547 110.017 57.4181 110.633 55.8114C110.667 55.7254 110.667 55.6296 110.633 55.5436C110.595 55.4576 110.523 55.3907 110.434 55.3583C109.082 54.8336 107.588 54.8021 106.215 55.2691C105.11 55.6878 104.307 56.7586 103.841 58.4336C103.798 58.5708 103.848 58.7197 103.964 58.8042ZM106.846 58.5091C106.097 58.7581 105.281 58.709 104.568 58.3718C105 57.0675 105.618 56.2301 106.462 55.8869C107.562 55.5209 108.751 55.5209 109.851 55.8869C109.268 57.1488 108.175 58.1024 106.846 58.5091Z" fill="#231F20"/>
<path id="Shape_15" fill-rule="evenodd" clip-rule="evenodd" d="M92.2105 46.9017C92.4169 47.8473 93.2535 48.5214 94.2209 48.5217C94.3697 48.5138 94.5171 48.4884 94.66 48.4462L102.31 46.7713C103.4 46.5156 104.085 45.4364 103.854 44.3413L103.168 41.067C103.052 40.5322 102.727 40.0658 102.266 39.7708C101.805 39.4759 101.246 39.3767 100.712 39.495L93.0613 41.1768C91.9513 41.4198 91.2479 42.5167 91.4901 43.6274L92.2105 46.9017ZM100.863 40.1609C100.961 40.1507 101.06 40.1507 101.158 40.1609L101.185 40.1403C101.817 40.1494 102.36 40.5886 102.503 41.2043L103.189 44.4786C103.334 45.204 102.879 45.9144 102.159 46.0849L94.5091 47.801C93.784 47.9467 93.0739 47.4913 92.9035 46.7713L92.1831 43.4489C92.0337 42.7191 92.4935 42.0032 93.2191 41.8358L100.863 40.1609Z" fill="#231F20"/>
<path id="Shape_16" fill-rule="evenodd" clip-rule="evenodd" d="M106.743 45.2059C107.074 45.42 107.46 45.5344 107.854 45.5354C108.016 45.5347 108.176 45.5186 108.335 45.4874L115.978 43.8124C117.078 43.5538 117.763 42.4573 117.515 41.355L116.829 38.0807C116.712 37.5459 116.388 37.0795 115.927 36.7845C115.466 36.4896 114.907 36.3903 114.373 36.5087L106.729 38.1836C106.193 38.3008 105.727 38.627 105.432 39.0897C105.139 39.55 105.04 40.108 105.158 40.6411L105.844 43.9154C105.961 44.4476 106.284 44.9117 106.743 45.2059ZM114.496 37.1952C114.593 37.1736 114.692 37.1621 114.791 37.1608C115.435 37.1579 115.994 37.6033 116.136 38.2317L116.822 41.506C116.899 41.8571 116.835 42.2244 116.644 42.5288C116.448 42.8292 116.143 43.041 115.793 43.1191L108.142 44.794C107.417 44.9397 106.707 44.4844 106.537 43.7644L105.816 40.4901C105.742 40.138 105.808 39.7707 106.002 39.4673C106.194 39.1637 106.501 38.9508 106.853 38.8769L114.496 37.1952Z" fill="#231F20"/>
<path id="Path_20" d="M102.818 41.4995C102.756 41.5008 102.694 41.4842 102.64 41.4514C102.474 41.353 102.416 41.14 102.51 40.9709C102.832 40.4149 103.882 39.5431 105.604 40.2364C105.794 40.3085 105.889 40.5205 105.817 40.7101C105.745 40.8996 105.533 40.9949 105.343 40.9229C103.807 40.3051 103.189 41.2455 103.127 41.3553C103.055 41.4516 102.939 41.5056 102.818 41.4995Z" fill="#231F20"/>
<path id="Path_21" d="M34.466 132.878H175.535L198.17 174.236H11.8306L34.466 132.878Z" fill="white"/>
<path id="Shape_17" fill-rule="evenodd" clip-rule="evenodd" d="M11.8302 174.58H198.17C198.292 174.581 198.407 174.519 198.472 174.415C198.53 174.308 198.53 174.179 198.472 174.072L175.829 132.714C175.77 132.602 175.654 132.533 175.527 132.535H34.4794C34.3533 132.533 34.2367 132.602 34.1775 132.714L11.5352 174.072C11.4766 174.179 11.4766 174.308 11.5352 174.415C11.5987 174.517 11.7101 174.579 11.8302 174.58ZM197.587 173.893H12.4134L34.6715 133.222H175.328L197.587 173.893Z" fill="#D1D3D4"/>
<path id="Path_22" d="M36.6548 106.196L36.9567 104.892C37.6428 103.588 38.4044 102.709 40.1746 102.709H107.326C108.994 102.712 110.46 103.813 110.929 105.414L121.845 142.934C122.43 144.604 121.615 146.441 119.985 147.129L118.798 147.41L36.6548 106.196Z" fill="white"/>
<path id="Shape_18" fill-rule="evenodd" clip-rule="evenodd" d="M118.647 147.719C118.695 147.74 118.746 147.752 118.798 147.753L118.867 147.781L120.095 147.486C121.889 146.731 122.79 144.713 122.153 142.873L111.23 105.304C110.715 103.559 109.117 102.359 107.299 102.352H40.1469C38.1023 102.352 37.3132 103.471 36.6271 104.713C36.6241 104.743 36.6241 104.773 36.6271 104.803L36.3252 106.107C36.2863 106.261 36.3607 106.421 36.5036 106.491L118.647 147.719ZM118.867 147.046L37.0731 106.011L37.2789 105.015C38.0062 103.739 38.658 103.052 40.1744 103.052H107.347C108.86 103.06 110.19 104.058 110.619 105.51L121.536 143.031C121.927 144.39 121.584 146.154 119.93 146.799L118.867 147.046Z" fill="#231F20"/>
<path id="Path_23" d="M118.798 147.41H50.2743C49.3183 147.4 48.4821 146.764 48.2159 145.845L36.6821 106.196C36.5938 105.888 36.6553 105.556 36.8481 105.3C37.0409 105.044 37.3426 104.893 37.6632 104.892H108.019L119.937 145.893C120.044 146.252 119.974 146.64 119.75 146.939C119.525 147.238 119.172 147.413 118.798 147.41Z" fill="#231F20"/>
<path id="Shape_19" fill-rule="evenodd" clip-rule="evenodd" d="M50.2745 147.753H118.798C119.279 147.753 119.732 147.526 120.021 147.142C120.309 146.757 120.4 146.259 120.267 145.797L108.342 104.796C108.301 104.652 108.169 104.553 108.019 104.556H37.636C37.21 104.56 36.8101 104.761 36.5534 105.101C36.2968 105.441 36.2126 105.882 36.3255 106.292L47.8593 145.941C48.177 147.012 49.1581 147.748 50.2745 147.753ZM37.0988 105.508C37.2262 105.339 37.4244 105.239 37.636 105.235H107.745L119.615 145.989C119.69 146.243 119.642 146.518 119.485 146.731C119.321 146.944 119.067 147.069 118.798 147.067H50.2745C49.4605 147.065 48.7441 146.529 48.5111 145.749L36.9841 106.1C36.9291 105.896 36.9714 105.677 37.0988 105.508Z" fill="#231F20"/>
<path id="Path_24" d="M107.306 130.517L103.141 148.234C102.687 150.187 100.946 151.567 98.9417 151.563H55.5987C54.2807 151.563 53.0352 150.96 52.2171 149.926C51.399 148.892 51.0979 147.541 51.3996 146.257L55.0704 130.517H51.4819L47.969 145.447C47.4318 147.776 47.985 150.223 49.4717 152.094C50.9585 153.965 53.2165 155.056 55.6056 155.057H98.976C102.593 155.055 105.737 152.571 106.578 149.051L110.928 130.517L107.306 130.517Z" fill="white"/>
<path id="Shape_20" fill-rule="evenodd" clip-rule="evenodd" d="M55.5988 155.449H98.9417C102.753 155.474 106.072 152.854 106.935 149.14L111.292 130.606C111.312 130.505 111.287 130.399 111.222 130.318C111.157 130.237 111.059 130.19 110.956 130.188H107.333C107.176 130.187 107.039 130.295 107.004 130.448L102.839 148.165C102.42 149.965 100.816 151.237 98.9692 151.234H55.5988C54.385 151.232 53.2384 150.676 52.4847 149.725C51.731 148.773 51.4528 147.529 51.729 146.346L55.4273 130.606C55.4521 130.506 55.4293 130.399 55.3655 130.318C55.3002 130.237 55.2021 130.189 55.0979 130.188H51.4751C51.3162 130.186 51.1771 130.294 51.1389 130.448L47.6328 145.385C47.0607 147.82 47.6321 150.383 49.1842 152.344C50.7363 154.304 53.0988 155.448 55.5988 155.449ZM48.2846 145.543L51.7153 130.874H54.6588L51.0635 146.188C50.7363 147.575 51.061 149.035 51.9448 150.152C52.8287 151.269 54.1747 151.921 55.5988 151.92H98.9554C101.122 151.93 103.006 150.436 103.491 148.323L107.608 130.874H110.524L106.27 148.975C105.482 152.371 102.454 154.772 98.9692 154.762H55.5988C53.3048 154.769 51.1342 153.724 49.708 151.926C48.2818 150.129 47.7573 147.777 48.2846 145.543Z" fill="#231F20"/>
<path id="Path_25" d="M163.198 94.3896C163.198 94.3896 169.332 121.641 164.31 128.602C159.287 135.562 124.212 134.464 124.212 134.464C124.212 134.464 118.524 141.294 113.584 140.841C108.644 140.388 111.526 131.039 117.337 127.147L116.534 123.9L147.458 118.937L143.341 99.3526" fill="white"/>
<path id="Path_26" d="M114.036 141.205C113.867 141.205 113.696 141.205 113.522 141.205C112.207 141.139 111.102 140.194 110.832 138.905C110.057 135.864 112.541 130.064 116.911 127.016L116.17 124.002C116.146 123.911 116.161 123.814 116.211 123.735C116.264 123.653 116.349 123.598 116.445 123.584L147.012 118.676L142.964 99.4553C142.945 99.3661 142.963 99.2733 143.014 99.1974C143.064 99.1214 143.142 99.0685 143.231 99.0503C143.32 99.03 143.412 99.0462 143.489 99.0953C143.565 99.1444 143.618 99.2223 143.636 99.3112L147.753 118.895C147.773 118.988 147.753 119.086 147.698 119.163C147.646 119.24 147.564 119.293 147.472 119.307L116.918 124.215L117.604 127.098C117.64 127.236 117.585 127.382 117.467 127.462C113.268 130.276 110.75 135.94 111.47 138.754C111.661 139.753 112.513 140.489 113.529 140.532C118.229 140.971 123.821 134.354 123.862 134.278C123.929 134.197 124.031 134.152 124.136 134.155C124.486 134.155 159.129 135.164 163.973 128.43C168.817 121.696 162.875 94.7944 162.813 94.4992C162.786 94.3766 162.827 94.2489 162.92 94.1642C163.012 94.0795 163.143 94.0508 163.263 94.0887C163.382 94.1267 163.473 94.2256 163.5 94.3482C163.753 95.4671 169.606 121.806 164.549 128.835C159.609 135.699 127.231 134.931 124.301 134.841C123.526 135.747 118.633 141.205 114.036 141.205Z" fill="#231F20"/>
<path id="Path_27" d="M126.401 80.8939C126.348 80.8931 126.296 80.8789 126.25 80.8527C126.165 80.8141 126.099 80.7425 126.068 80.6544C126.037 80.5663 126.043 80.4694 126.085 80.3859C131.066 70.0893 143.856 63.1631 143.986 63.0945C144.068 63.0489 144.164 63.0384 144.254 63.0657C144.343 63.0929 144.417 63.1553 144.46 63.2386C144.505 63.3212 144.516 63.4188 144.489 63.5093C144.462 63.5998 144.399 63.6755 144.315 63.7191C144.192 63.7878 131.601 70.5836 126.723 80.6948C126.661 80.8164 126.537 80.8932 126.401 80.8939Z" fill="#231F20"/>
<path id="Path_28" d="M105.254 80.4067C105.204 80.4171 105.153 80.4171 105.103 80.4067C93.1509 74.9152 91.7031 62.8476 91.6894 62.7309C91.6694 62.5359 91.8103 62.3612 92.005 62.3396C92.0979 62.328 92.1916 62.3542 92.2651 62.4122C92.3386 62.4703 92.3858 62.5554 92.3961 62.6485C92.3961 62.7652 93.8233 74.4416 105.433 79.6997C105.609 79.7807 105.688 79.9882 105.611 80.1665C105.557 80.3159 105.413 80.4131 105.254 80.4067Z" fill="#231F20"/>
<path id="Path_29" d="M50.7959 95.9684C50.6427 95.9246 50.5371 95.7846 50.5371 95.6252C50.5371 95.4658 50.6427 95.3258 50.7959 95.282C55.9693 95.1241 58.4806 92.1999 58.508 92.1724C58.567 92.1003 58.6523 92.0546 58.745 92.0456C58.8378 92.0366 58.9303 92.0649 59.002 92.1244C59.1531 92.2497 59.1745 92.4736 59.0501 92.6255C58.9403 92.7559 56.3055 95.8243 50.8165 95.989L50.7959 95.9684Z" fill="#231F20"/>
<path id="Path_30" d="M143.3 99.7025C143.138 99.7039 142.995 99.5929 142.957 99.4348C142.957 99.3112 139.725 86.6601 139.279 79.075C139.274 78.9821 139.305 78.8908 139.367 78.8212C139.429 78.7517 139.516 78.7096 139.609 78.7043C139.803 78.6925 139.972 78.8392 139.986 79.0338C140.432 86.5503 143.616 99.1328 143.643 99.2632C143.691 99.4525 143.578 99.6453 143.389 99.6956L143.3 99.7025Z" fill="#231F20"/>
<path id="Path_31" d="M87.9979 101.961C87.9038 101.956 87.8158 101.913 87.7538 101.841C87.6918 101.77 87.6611 101.677 87.6686 101.583L89.3702 74.9151C89.3755 74.8209 89.4185 74.7328 89.4895 74.6708C89.5605 74.6088 89.6536 74.5781 89.7476 74.5856C89.8411 74.589 89.9292 74.6306 89.9914 74.7006C90.0536 74.7706 90.0845 74.8629 90.0769 74.9563L88.3479 101.624C88.3405 101.812 88.186 101.961 87.9979 101.961Z" fill="#231F20"/>
<path id="Path_32" d="M148.748 87.0446C148.618 87.0461 148.499 86.9744 148.439 86.8592L145.118 80.6813C145.081 80.5911 145.081 80.49 145.118 80.3998C145.15 80.3076 145.216 80.2313 145.303 80.187L155.595 75.3202C155.68 75.2779 155.778 75.2716 155.867 75.3026C155.956 75.3337 156.029 75.3994 156.069 75.4849C156.153 75.6613 156.079 75.8723 155.904 75.9586L145.928 80.6675L148.933 86.2414L159.04 83.1524C159.162 83.1157 159.295 83.1471 159.388 83.2349C159.481 83.3227 159.521 83.4535 159.491 83.5781C159.462 83.7027 159.368 83.8021 159.246 83.8389L148.851 87.0514L148.748 87.0446Z" fill="#231F20"/>
<ellipse id="Oval_4" cx="157.661" cy="160.274" rx="16.9406" ry="5.10025" fill="white"/>
<path id="Shape_21" fill-rule="evenodd" clip-rule="evenodd" d="M140.377 160.274C140.377 163.329 147.972 165.718 157.661 165.718C167.349 165.718 174.944 163.329 174.944 160.274C174.944 157.219 167.349 154.831 157.661 154.831C147.972 154.831 140.377 157.219 140.377 160.274ZM141.063 160.274C141.063 157.974 147.732 155.517 157.661 155.517C167.589 155.517 174.258 157.974 174.258 160.274C174.258 162.574 167.589 165.031 157.661 165.031C147.732 165.031 141.063 162.574 141.063 160.274Z" fill="#D1D3D4"/>
<path id="Path_33" d="M144.892 145.708L144.487 145.784C143.263 145.966 142.149 146.594 141.358 147.548C140.454 148.929 140.414 150.705 141.255 152.126C143.053 155.366 147.43 156.245 150.806 156.581C151.284 156.659 151.773 156.621 152.233 156.471C152.699 156.312 153.014 155.879 153.022 155.387C152.963 154.986 152.705 154.642 152.336 154.474C151.983 154.31 151.605 154.203 151.218 154.158C149.118 153.815 146.909 153.561 144.988 152.593C143.869 152.023 142.305 150.726 143.122 149.326C143.407 148.882 143.818 148.533 144.302 148.323C146.23 147.404 148.062 148.104 149.962 148.667C150.1 148.717 150.248 148.738 150.395 148.728C150.771 148.625 151.01 148.256 150.95 147.87C150.889 147.04 150.058 146.497 149.276 146.189C147.879 145.658 146.37 145.492 144.892 145.708Z" fill="white"/>
<path id="Shape_22" fill-rule="evenodd" clip-rule="evenodd" d="M150.779 156.924C150.977 156.946 151.176 156.958 151.376 156.958C151.71 156.964 152.042 156.908 152.357 156.794C152.946 156.657 153.375 156.15 153.415 155.546C153.454 154.943 153.094 154.384 152.528 154.172C152.141 153.987 151.726 153.868 151.3 153.821L150.525 153.698C148.677 153.502 146.87 153.026 145.166 152.284C144.348 151.922 143.69 151.276 143.314 150.465C143.216 150.141 143.263 149.79 143.444 149.504C143.694 149.116 144.055 148.812 144.48 148.632C146.12 147.849 147.712 148.33 149.4 148.845L149.894 148.996C150.079 149.059 150.275 149.084 150.47 149.071C151.025 148.939 151.392 148.409 151.321 147.843C151.231 146.724 150.113 146.126 149.427 145.872C147.968 145.313 146.389 145.141 144.844 145.371L144.418 145.447C143.112 145.648 141.925 146.322 141.084 147.341C140.096 148.83 140.045 150.752 140.953 152.291C142.415 154.927 145.626 156.437 150.779 156.924ZM144.555 146.12L144.947 146.051V146.065C146.374 145.851 147.832 146.009 149.18 146.525C149.599 146.676 150.58 147.129 150.635 147.897C150.648 148.103 150.545 148.385 150.381 148.385C150.282 148.387 150.185 148.371 150.093 148.337L149.599 148.186C147.863 147.657 146.065 147.115 144.185 148.014C143.636 148.25 143.172 148.647 142.854 149.154C142.575 149.606 142.503 150.155 142.655 150.664C143.083 151.658 143.869 152.454 144.857 152.895C146.622 153.673 148.497 154.173 150.415 154.377L151.19 154.501C151.539 154.537 151.88 154.63 152.199 154.776C152.454 154.893 152.634 155.13 152.679 155.407C152.656 155.75 152.428 156.045 152.103 156.155C151.694 156.279 151.262 156.307 150.84 156.238C145.935 155.778 142.895 154.377 141.557 151.961C140.777 150.657 140.807 149.022 141.633 147.746C142.377 146.867 143.416 146.289 144.555 146.12Z" fill="#231F20"/>
<path id="Path_34" d="M146.477 142.234C146.477 142.234 149.646 158.064 149.907 159.018C150.168 159.972 157.661 163.892 163.63 160.041L168.851 143.861L146.477 142.234Z" fill="white"/>
<path id="Shape_23" fill-rule="evenodd" clip-rule="evenodd" d="M152.549 161.05C154.222 161.698 155.998 162.037 157.791 162.052C159.919 162.089 162.01 161.502 163.808 160.363C163.876 160.323 163.927 160.259 163.953 160.185L169.174 144.005C169.209 143.905 169.194 143.795 169.135 143.707C169.075 143.619 168.978 143.564 168.872 143.559L146.497 141.898C146.391 141.886 146.285 141.927 146.214 142.008C146.143 142.088 146.115 142.199 146.141 142.303C146.271 142.955 149.317 158.153 149.571 159.107C149.736 159.718 151.232 160.542 152.549 161.05ZM150.237 158.929C150.01 158.084 147.417 145.186 146.902 142.612L168.412 144.177L163.363 159.821C159.753 162.073 155.815 161.366 153.757 160.741C151.568 160.075 150.333 159.155 150.237 158.929Z" fill="#231F20"/>
<ellipse id="Oval_5" cx="157.697" cy="142.697" rx="4.86" ry="11.2183" transform="rotate(-87.65 157.697 142.697)" fill="#231F20"/>
<path id="Shape_24" fill-rule="evenodd" clip-rule="evenodd" d="M157.475 147.918H158.566C160.956 147.97 163.336 147.591 165.592 146.799C167.863 145.948 169.181 144.644 169.236 143.202C169.359 140.278 164.378 137.8 157.901 137.532C151.424 137.264 146.257 139.324 146.134 142.248C146.01 145.172 150.991 147.657 157.475 147.918ZM146.813 142.282C146.909 139.948 151.403 138.164 156.844 138.164L157.901 138.184C163.781 138.425 168.687 140.697 168.584 143.147C168.536 144.28 167.369 145.371 165.38 146.133C162.853 147.019 160.176 147.394 157.503 147.238C151.616 146.998 146.717 144.726 146.813 142.282Z" fill="#231F20"/>
<path id="Shape_25" fill-rule="evenodd" clip-rule="evenodd" d="M94.5437 98.2543H130.847C131.029 98.2547 131.179 98.1132 131.19 97.9317V87.1889C131.19 86.9994 131.036 86.8457 130.847 86.8457H94.5437C94.3558 86.8494 94.2043 87.0009 94.2007 87.1889V97.9111C94.2007 98.1007 94.3543 98.2543 94.5437 98.2543ZM130.504 97.5679H94.8868V87.5321H130.504V97.5679Z" fill="white"/>
<rect id="Rectangle" x="11.8306" y="174.236" width="186.333" height="7.18703" fill="white"/>
<path id="Shape_26" fill-rule="evenodd" clip-rule="evenodd" d="M11.8304 181.767H198.17C198.359 181.767 198.513 181.613 198.513 181.423V174.236C198.509 174.048 198.358 173.897 198.17 173.893H11.8304C11.6424 173.897 11.491 174.048 11.4873 174.236V181.423C11.4873 181.613 11.6409 181.767 11.8304 181.767ZM197.827 181.08H12.1734V174.58H197.827V181.08Z" fill="#D1D3D4"/>
<path id="Path_35" d="M168.845 107.116C168.657 107.109 168.508 106.954 168.508 106.766C168.508 105.976 169.009 87.367 171.061 80.9213C173.112 74.4756 176.961 71.7917 177.119 71.6887C177.277 71.5825 177.49 71.624 177.596 71.7814C177.702 71.9387 177.661 72.1523 177.503 72.2584C177.462 72.2584 173.709 74.8601 171.713 81.1273C169.716 87.3945 169.201 106.587 169.194 106.78C169.193 106.871 169.155 106.957 169.089 107.02C169.023 107.083 168.935 107.118 168.845 107.116Z" fill="white"/>
</g>
</g>
</g>
<defs>
<filter id="filter0_d_1_10197" x="0" y="0" width="210" height="210" filterUnits="userSpaceOnUse" color-interpolation-filters="sRGB">
<feFlood flood-opacity="0" result="BackgroundImageFix"/>
<feColorMatrix in="SourceAlpha" type="matrix" values="0 0 0 0 0 0 0 0 0 0 0 0 0 0 0 0 0 0 127 0" result="hardAlpha"/>
<feOffset dy="4"/>
<feGaussianBlur stdDeviation="2"/>
<feComposite in2="hardAlpha" operator="out"/>
<feColorMatrix type="matrix" values="0 0 0 0 0 0 0 0 0 0 0 0 0 0 0 0 0 0 0.25 0"/>
<feBlend mode="normal" in2="BackgroundImageFix" result="effect1_dropShadow_1_10197"/>
<feBlend mode="normal" in="SourceGraphic" in2="effect1_dropShadow_1_10197" result="shape"/>
</filter>
<linearGradient id="paint0_linear_1_10197" x1="0" y1="202" x2="202" y2="202" gradientUnits="userSpaceOnUse">
<stop stop-color="#5D0202" stop-opacity="0.01"/>
<stop offset="1" stop-color="#5D0202" stop-opacity="0.497569"/>
</linearGradient>
</defs>
</svg>
